<svg id="Layer_1" data-name="Layer 1" xmlns="http://www.w3.org/2000/svg" viewBox="0 0 1360 768"><defs><style>.cls-1,.cls-9{fill:#283271;}.cls-2{font-size:41.38px;fill:#6d6e70;font-family:AvenirNextCondensed-Regular, Avenir Next Condensed;}.cls-3{letter-spacing:-0.01em;}.cls-4{fill:#36bfcb;}.cls-5{fill:#3c5ba8;}.cls-6{fill:#f7964a;}.cls-7{fill:#e22d26;}.cls-8{fill:#e22e26;}.cls-10,.cls-11,.cls-12,.cls-8,.cls-9{opacity:0.54;}.cls-10{fill:#37c0cc;}.cls-11{fill:#f8974a;}.cls-12{fill:#3d5ba9;}</style></defs><title>Artboard 5hands</title><path class="cls-1" d="M682.13,402.25h0a6.7,6.7,0,0,1-6.7-6.7v-3.43h-.3a25.5,25.5,0,0,1-10.65,8.79A32.84,32.84,0,0,1,650.55,404a37.52,37.52,0,0,1-14.83-2.83,32.86,32.86,0,0,1-11.32-7.9,35.59,35.59,0,0,1-7.22-11.77,40.93,40.93,0,0,1-2.53-14.6,41.56,41.56,0,0,1,2.53-14.67,34.7,34.7,0,0,1,7.22-11.77,33.21,33.21,0,0,1,11.32-7.82,37.35,37.35,0,0,1,14.83-2.83,32.84,32.84,0,0,1,14.3,3.2,24.47,24.47,0,0,1,10.28,8.71h.3V296.33a6.71,6.71,0,0,1,6.7-6.71h0a6.71,6.71,0,0,1,6.7,6.71v99.22A6.7,6.7,0,0,1,682.13,402.25Zm-29.94-10.73a24.25,24.25,0,0,0,9.68-1.86,21.46,21.46,0,0,0,7.3-5.06,22.45,22.45,0,0,0,4.62-7.75,30.73,30.73,0,0,0,0-19.81,22.45,22.45,0,0,0-4.62-7.75,21.48,21.48,0,0,0-7.3-5.07,26.14,26.14,0,0,0-19.37,0,21.48,21.48,0,0,0-7.3,5.07,22.43,22.43,0,0,0-4.61,7.75,30.73,30.73,0,0,0,0,19.81,22.43,22.43,0,0,0,4.61,7.75,21.46,21.46,0,0,0,7.3,5.06A24.27,24.27,0,0,0,652.19,391.52Z"/><path class="cls-1" d="M724.23,371.86a2.73,2.73,0,0,0-2.67,3.24c1.44,8.56,9.66,15.26,17.88,16.9A23.45,23.45,0,0,0,755,389.71c3.2-1.7,6.67-5.57,10.41-5.7,5.79-.18,8.07,7.64,4,11.18q-10.27,8.85-26,8.85a39,39,0,0,1-15.12-2.83,32.92,32.92,0,0,1-11.47-7.82,34.72,34.72,0,0,1-7.23-11.77A41.57,41.57,0,0,1,707,366.94a38.54,38.54,0,0,1,2.76-14.67,36.42,36.42,0,0,1,7.6-11.77,34.42,34.42,0,0,1,11.54-7.82,37.12,37.12,0,0,1,14.6-2.83c10,0,20.3,3.31,26.08,11.95a36,36,0,0,1,4.94,12.08c1.65,7.17,2.4,18-7.58,18Zm36.42-10.73c4.8,0,2-7.46.89-9.69a19.63,19.63,0,0,0-9-9,21.65,21.65,0,0,0-18.54.15c-6,2.87-11.09,8.67-12.39,15.22a2.74,2.74,0,0,0,2.67,3.29Z"/><path class="cls-1" d="M850.67,403.41a6.5,6.5,0,0,1-4.93-2.26l-51.94-60a6.52,6.52,0,0,1,9.87-8.53l51.93,60a6.53,6.53,0,0,1-4.93,10.79Z"/><path class="cls-1" d="M798.73,403.41a6.53,6.53,0,0,1-4.93-10.79l51.94-60a6.52,6.52,0,0,1,9.86,8.53l-51.93,60A6.52,6.52,0,0,1,798.73,403.41Z"/><text class="cls-2" transform="translate(614.03 459.94)">d<tspan class="cls-3" x="19.28" y="0">e</tspan><tspan x="36.54" y="0">xterity the</tspan><tspan class="cls-3" x="181.17" y="0">r</tspan><tspan x="192.26" y="0">apy</tspan></text><path class="cls-4" d="M500.73,429.37l32.56-32.56a2.48,2.48,0,0,0,.74-1.71l.52-24.52a2.37,2.37,0,0,0-4.11-1.66l-32.83,32.83a2.5,2.5,0,0,0-.73,1.74l-.26,24.24A2.38,2.38,0,0,0,500.73,429.37Z"/><path class="cls-5" d="M535.39,359.35V331.19a2.49,2.49,0,0,0-2.38-2.58H507.06c-2.12,0-3.18,2.78-1.68,4.4l26,28.17A2.36,2.36,0,0,0,535.39,359.35Z"/><path class="cls-6" d="M526.89,321.83H499.13a2.59,2.59,0,0,1-2.59-2.59V291.17a2.59,2.59,0,0,1,4.44-1.82l27.76,28.06A2.6,2.6,0,0,1,526.89,321.83Z"/><path class="cls-7" d="M546.71,387.46l27.74-27.74a2.38,2.38,0,0,0,0-3.38L546.71,328.6a2.39,2.39,0,0,0-4.08,1.69v55.48A2.39,2.39,0,0,0,546.71,387.46Z"/><path class="cls-1" d="M509.67,378.69,523,365.37a1.14,1.14,0,0,0,0-1.62l-13.31-13.31a1.15,1.15,0,0,0-2,.81v26.63A1.15,1.15,0,0,0,509.67,378.69Z"/><path class="cls-8" d="M1365.5,693.48v88a5,5,0,0,1-5,5h-88a5,5,0,0,1-3.56-8.59l88-88A5,5,0,0,1,1365.5,693.48Z"/><rect class="cls-9" x="1265.8" y="560.81" width="52.56" height="52.56" rx="5.03"/><path class="cls-10" d="M1367.5,229.85v87.62a5,5,0,0,1-5,5h-87.62a5,5,0,0,1-3.56-8.59l87.62-87.62A5,5,0,0,1,1367.5,229.85Z"/><path class="cls-11" d="M1327.44,483.31l-25.15-25.15a5,5,0,0,0-7.12,0l-24.74,24.75a5,5,0,0,0,3.51,8.59l49.9.4A5,5,0,0,0,1327.44,483.31Z"/><path class="cls-8" d="M1258.5,140.48v88a5,5,0,0,1-5,5h-88a5,5,0,0,1-3.56-8.59l88-88A5,5,0,0,1,1258.5,140.48Z"/><path class="cls-8" d="M150.21,467.5h-89a4.75,4.75,0,0,1-4.75-4.75v-89a4.75,4.75,0,0,1,8.11-3.36l89,89A4.75,4.75,0,0,1,150.21,467.5Z"/><rect class="cls-9" x="127.99" y="323.13" width="52.56" height="52.56" rx="4.75" transform="translate(308.54 698.81) rotate(-180)"/><path class="cls-10" d="M74.84,210.5H-13.75a4.75,4.75,0,0,1-4.75-4.75V117.16a4.75,4.75,0,0,1,8.11-3.36L78.2,202.39A4.75,4.75,0,0,1,74.84,210.5Z"/><path class="cls-11" d="M169.71,256l-25.44-25.43a4.73,4.73,0,0,0-6.71,0l-25.85,25.84a4.75,4.75,0,0,0,3.4,8.11l51.28-.41A4.75,4.75,0,0,0,169.71,256Z"/><path class="cls-12" d="M187.5,515.41v57.34a4.75,4.75,0,0,1-4.75,4.75H125.41a4.75,4.75,0,0,1-3.36-8.11l57.34-57.34A4.75,4.75,0,0,1,187.5,515.41Z"/><path class="cls-8" d="M119.21,85.5h-89a4.75,4.75,0,0,1-4.75-4.75v-89a4.75,4.75,0,0,1,8.11-3.36l89,89A4.75,4.75,0,0,1,119.21,85.5Z"/><path class="cls-10" d="M137.84,775.5H49.25a4.75,4.75,0,0,1-4.75-4.75V682.16a4.75,4.75,0,0,1,8.11-3.36l88.59,88.59A4.75,4.75,0,0,1,137.84,775.5Z"/><path class="cls-11" d="M1335.87,89.31l-25.15-25.15a5,5,0,0,0-7.12,0l-24.75,24.75a5,5,0,0,0,3.52,8.59l49.9.4A5,5,0,0,0,1335.87,89.31Z"/><path class="cls-11" d="M169.29,675l-25.43-25.43a4.74,4.74,0,0,0-6.72,0L111.3,675.39a4.75,4.75,0,0,0,3.39,8.11l51.28-.41A4.75,4.75,0,0,0,169.29,675Z"/><path class="cls-12" d="M177.5,84.41v57.34a4.75,4.75,0,0,1-4.75,4.75H115.41a4.75,4.75,0,0,1-3.36-8.11l57.34-57.34A4.75,4.75,0,0,1,177.5,84.41Z"/><path class="cls-10" d="M1267.84,709.5h-88.59a4.75,4.75,0,0,1-4.75-4.75V616.16a4.75,4.75,0,0,1,8.11-3.36l88.59,88.59A4.75,4.75,0,0,1,1267.84,709.5Z"/><path class="cls-12" d="M1251.9,54.5h-56.37a5,5,0,0,1-5-5V-6.9a5,5,0,0,1,8.59-3.56l56.37,56.37A5,5,0,0,1,1251.9,54.5Z"/><rect class="cls-9" x="-9.66" y="572.08" width="52.56" height="52.56" rx="4.75" transform="translate(33.25 1196.71) rotate(-180)"/><path class="cls-12" d="M1228.9,409.5h-56.37a5,5,0,0,1-5-5V348.1a5,5,0,0,1,8.59-3.56l56.37,56.37A5,5,0,0,1,1228.9,409.5Z"/></svg>