<svg id="Layer_1" data-name="Layer 1" xmlns="http://www.w3.org/2000/svg" viewBox="0 0 414 220"><defs><style>.cls-1{fill:#fff;}.cls-2{fill:#f8974a;}.cls-3,.cls-4{fill:none;}.cls-4{stroke:#f8974a;stroke-linejoin:round;stroke-width:4px;}</style></defs><title>exercise1</title><path class="cls-1" d="M149.46,129.19c.5-3.64-6.8-18.22-11.82-24.16a20.5,20.5,0,0,1-3.9-9.33c-1-5.22-.73-10.6,0-13,1.24-4,6.88-4.84,7.84-4.23.8.5,23.6,33.7,31.26,44.88a14.29,14.29,0,0,1,2.52,8c.07,6.6.3,19.15,1,26.42,1,10.19-1.92,21.27-1.92,21.27s-3.81,11.57-21.3,18.1-29.64-3.7-33.68-6.34-32.61-39.38-33.41-41.31-3.79-12.14-16.06-30.35c-3.88-5.76-11.32-21.41-11.5-24.06s-.75-9,2-10.1S70,89.26,74.08,102.53c0,0,17.5,24.31,17.31,25.52s1-4.06-.36-5.29-13.32-19.68-13.32-19.68S63.86,73.87,62.65,69.84,60.37,59.9,64.24,58.3s5.42.8,5.42.8"/><path class="cls-2" d="M129.29,198.1a48.76,48.76,0,0,1-9.32-5.33c-.45-.32-.85-.6-1.19-.82C114.28,189,85.63,151.89,84.86,150c-.1-.23-.22-.57-.39-1-1.17-3.23-4.76-13.06-15.55-29.07C65.18,114.36,57.42,98.4,57.2,95.2l0-.35c-.24-3.37-.68-9.66,2.82-11.1a4.34,4.34,0,0,1,3.58.32c2.14,1,4.81,3.48,7.32,7.69-4-8.62-8.83-19.15-9.54-21.53-2.69-9-.19-12.13,2.38-13.18,3.89-1.61,6.33.15,7.08,1.31a1.36,1.36,0,1,1-2.29,1.47c-.08-.12-1.09-1.37-3.76-.27-2.92,1.2-1.76,6.71-.81,9.89s10.16,22.88,15,33c5.63,8.72,12.09,18.43,13,19.32,2,1.74.86,6.77.62,7.17l-.56,1-1.06-.37a1.34,1.34,0,0,1-.9-1.33c-1-2.2-10.89-16.29-17-24.85l-.13-.18-.07-.21C69.9,93.62,65.5,88,62.41,86.53A1.91,1.91,0,0,0,61,86.26c-1.13.46-1.51,3.29-1.15,8.4l0,.35c.14,2.1,7.11,17.22,11.27,23.39,11,16.29,14.64,26.35,15.84,29.66.15.41.26.72.35.93,1,2.06,29,38.14,32.9,40.69.35.23.77.52,1.25.86,4.76,3.31,15.89,11.06,31.21,5.35,16.14-6,20.23-16.57,20.47-17.23s2.83-11.25,1.86-20.73c-.74-7.29-1-19.76-1.05-26.55a12.87,12.87,0,0,0-2.28-7.22C154.28,98.7,142.6,81.9,140.84,79.7c-1.15-.12-5,.79-5.79,3.45-.6,1.9-1,7,0,12.3a19.11,19.11,0,0,0,3.61,8.7c4.69,5.55,12.75,20.68,12.12,25.23a1.36,1.36,0,1,1-2.69-.38c.4-2.88-6.3-16.94-11.5-23.1a21.73,21.73,0,0,1-4.21-10c-1-5.45-.74-11.08.06-13.61a7.64,7.64,0,0,1,4.93-4.72c1.67-.62,3.84-.93,4.92-.26.39.25,1.11.7,31.66,45.27a15.65,15.65,0,0,1,2.76,8.72c.07,6.74.3,19.12,1,26.3,1,10.32-1.83,21.3-2,21.76l0,.07c-.16.5-4.22,12.27-22.11,19A32.13,32.13,0,0,1,129.29,198.1ZM90.05,127.84h0ZM75.31,101.92l1,1.4c-.31-.65-1-2.08-1.89-4C74.73,100.15,75,101,75.31,101.92ZM141,79.73"/><path class="cls-1" d="M133.74,95.7c-3.62-.29-16.89-23.44-14.59-19.24,0,0-12.44-16.32-15.67-19.28S90,41,86.32,42.94c-2.73,1.45-5.65,2.81-5.72,5.79a7.72,7.72,0,0,0,1,3.59,54.07,54.07,0,0,0,4.29,6.28c6.35,8.44,17.22,21.47,20.15,27,3.85,7.27,10.21,14.38,9.95,15.49a20.61,20.61,0,0,1-2.24,3.92S96.93,76.32,95.93,75.3s-9.16-14.95-9.16-14.95"/><path class="cls-2" d="M113.65,107.51l-1.07-1.82C106,94.47,95.86,77.36,94.93,76.21S87.53,64.33,85.6,61a1.28,1.28,0,0,1-.18-.8l-.62-.82a54.54,54.54,0,0,1-4.41-6.47,9,9,0,0,1-1.15-4.24c.08-3.61,3.22-5.26,6-6.72l.45-.24c3.43-1.82,8.81,3.65,15.47,11,1.36,1.49,2.53,2.78,3.25,3.45,2.89,2.65,12.58,15.21,15.19,18.63a6.71,6.71,0,0,1,1.23,1.67c9.83,15.94,12.49,17.72,13.08,17.87a1.35,1.35,0,0,1,1.22,1.46,1.38,1.38,0,0,1-1.49,1.24c-1.82-.14-4.9-2.57-15.12-19.14-.15-.26-.29-.47-.4-.65l0,0C118,77.12,105.66,61,102.56,58.18c-.81-.75-2-2.08-3.42-3.62a100.73,100.73,0,0,0-7.43-7.63C88,43.65,87,44.13,87,44.14l-.45.24c-2.8,1.47-4.5,2.5-4.54,4.38a6.41,6.41,0,0,0,.85,2.94A51.82,51.82,0,0,0,87,57.78c2,2.61,4.32,5.61,6.82,8.79C99.38,73.68,105.16,81,107.23,85a95.06,95.06,0,0,0,6.85,10.49c2.77,3.83,3.49,4.87,3.23,6a18.69,18.69,0,0,1-2.45,4.39ZM99.52,78.41c3.68,6,10.28,17.19,14.29,24a11.7,11.7,0,0,0,.78-1.43,43.76,43.76,0,0,0-2.71-4,94.89,94.89,0,0,1-7-10.81A70.39,70.39,0,0,0,99.52,78.41Z"/><path class="cls-1" d="M99.87,114.84C103.24,111.1,84.18,86,84.18,86S75.31,67.93,69.66,59.1,67.35,46.18,70.28,45c0,0,7.53-.23,10.07,5"/><path class="cls-2" d="M99.35,116.09a1.58,1.58,0,0,1-.39-.24,1.36,1.36,0,0,1-.1-1.91c.07-.13,1-2.28-6.91-14.49-4.21-6.5-8.8-12.56-8.85-12.62L83,86.61c-.09-.18-8.91-18.12-14.45-26.78-2.92-4.58-3.9-8.49-2.91-11.63a7.2,7.2,0,0,1,4.15-4.48l.23-.1h.25c.34,0,8.44-.19,11.33,5.77a1.36,1.36,0,1,1-2.44,1.19c-1.89-3.89-7.34-4.22-8.56-4.24A4.4,4.4,0,0,0,68.2,49c-.73,2.3.18,5.54,2.61,9.35,5.38,8.42,13.76,25.35,14.54,26.92.64.86,5.07,6.76,9.08,13,8.15,12.65,7.83,15.93,6.45,17.46A1.35,1.35,0,0,1,99.35,116.09Z"/><path class="cls-1" d="M135.51,113.75s-7.86,14-5.75,21.71,2.55,23.13,12.6,31.89"/><path class="cls-2" d="M141.84,168.6a1.33,1.33,0,0,1-.37-.23c-8.18-7.12-10.25-18.35-11.76-26.55-.43-2.33-.8-4.34-1.26-6-2.23-8.17,5.54-22.14,5.87-22.73a1.36,1.36,0,1,1,2.37,1.33c-.08.13-7.55,13.59-5.62,20.69.49,1.76.89,3.93,1.31,6.22,1.44,7.81,3.41,18.49,10.88,25a1.36,1.36,0,0,1-1.42,2.28Z"/><path class="cls-1" d="M141,122.4s3.33-1.91,4.84-1.28"/><path class="cls-2" d="M140.52,123.65a1.37,1.37,0,0,1-.66-.58,1.36,1.36,0,0,1,.5-1.85c.92-.53,4.07-2.18,6-1.35a1.35,1.35,0,0,1,.73,1.77,1.36,1.36,0,0,1-1.78.73c-.47-.18-2.24.4-3.65,1.21A1.35,1.35,0,0,1,140.52,123.65Z"/><path class="cls-2" d="M116.61,118.31s-7.13,30.52-13.49,31.17"/><path class="cls-2" d="M102.6,150.74a1.36,1.36,0,0,1,.38-2.61c3.33-.34,9-15.9,12.31-30.12a1.35,1.35,0,1,1,2.64.61c-1.72,7.38-7.88,31.52-14.67,32.22A1.46,1.46,0,0,1,102.6,150.74Z"/><path class="cls-1" d="M344.79,95.42a1.24,1.24,0,0,1-.38,0,4.18,4.18,0,0,1-2.6-2.08,8.52,8.52,0,0,1-.37-5.56,13.34,13.34,0,0,0-1.71,2c-.8,1.88-10.68,25.36-12.16,31.47s.23,12.83.25,12.9a1.35,1.35,0,0,1-1,1.65,1.4,1.4,0,0,1-.34.05,1.37,1.37,0,0,1-1.32-1,33.14,33.14,0,0,1-.25-14.22c1.55-6.47,11.66-30.41,12.31-31.95.36-1.12,4.78-15,6.84-19.4,1.64-3.49,2-7,1.42-8.4a.76.76,0,0,0-.35-.43,5.17,5.17,0,0,0-3.09-.08,8.55,8.55,0,0,0-1.58,1.87,1.37,1.37,0,0,1,1.24,1.45c0,.05-.15,2.77,1.59,3.65a1.36,1.36,0,0,1,.61,1.82,1.37,1.37,0,0,1-1.22.75,1.3,1.3,0,0,1-.6-.15c-2.38-1.18-2.94-3.7-3.07-5.16-2.34,4.14-5.13,10.34-7.38,15.32-2,4.5-3.79,8.38-5,10.43-3.27,5.52-8.69,24.26-8.74,24.45a1.36,1.36,0,0,1-1.31,1,1.18,1.18,0,0,1-.37,0,1.35,1.35,0,0,1-.93-1.68c.22-.78,5.57-19.26,9-25.08,1.14-1.92,2.95-5.93,4.86-10.17C334,68.15,337.6,60.42,340.4,58.21c.55-.82,1.08-1.68,1.57-2.54a33.74,33.74,0,0,1-5.08-3.58c-1.34-1.34-.73-3.41.38-5.09a30,30,0,0,0-2.47,1.91l-.14.11c-13.64,19.55-33.35,54.2-33.55,54.55a1.36,1.36,0,0,1-2.36-1.34c.18-.32,17.22-30.27,30.63-50.29h-.23A7.42,7.42,0,0,1,325,50.59c-2.26-1.51-2.46-3.33-2.19-4.4A45.92,45.92,0,0,0,312,57c-.63.82-1.25,1.72-1.9,2.67a31.64,31.64,0,0,1-5.33,6.45c-1.75,1.59-23.25,30.08-24.46,32.42-6.84,13.21-11.61,17.5-12.91,18.51a15.54,15.54,0,0,1-2.88,3.68,1.32,1.32,0,0,1-.22.79c-.31.62-1.37,5.12-2.16,8.91a1.36,1.36,0,0,1-1.33,1.08,1.24,1.24,0,0,1-.27,0,1.36,1.36,0,0,1-1.06-1.6c.41-2,.88-4.13,1.33-6a1.43,1.43,0,0,1-.49.1,1.34,1.34,0,0,1-1.07-.51,1.36,1.36,0,0,1,.22-1.91,29.8,29.8,0,0,0,5-4.93l.67-1.19a98.54,98.54,0,0,0,6.69-14.62l.31-.91c1.15-3.42,3.86-11.43,4.33-16.25a8.94,8.94,0,0,0-.1-2.26c-.66,1.25-2.2,3.77-4.46,4.9a8.48,8.48,0,0,1-3.69.72,19.06,19.06,0,0,1-4.59-.63,1.37,1.37,0,0,1-.58-.35c-7.92,14-19.06,36-20.66,39.57-1.4,3.16-1.07,7.94-.78,12.15.11,1.49.21,2.9.22,4.18,0,1.63,0,3.33,0,5a60,60,0,0,0,.57,12.12c.3,1.55.6,3.09.91,4.64.72,3.67,1.47,7.47,2.08,11.29.79,4.93,2,8.54,3.74,11.37a16.36,16.36,0,0,0,2.17,2.79c6,6.06,18.57,10.52,44.93-2.68,4.74-2.38,8.14-5,10.38-8,1.35-1.81,2.61-3.78,3.84-5.69.88-1.37,1.79-2.79,2.73-4.14,2.22-3.22,4.26-6.46,6.5-10.06l1.14-1.83c2.56-4.1,5.21-8.35,7.61-12.49,1.88-3.25,2.69-7.21,3.49-11.05.22-1.1.45-2.19.69-3.26A102.27,102.27,0,0,1,338,113.3a52,52,0,0,1,2.66-5.12c1.51-2.68,3.08-5.45,3.61-8.13.1-.46.48-2.38.93-4.69A1.19,1.19,0,0,1,344.79,95.42Z"/><path class="cls-3" d="M275.49,78.85a9.52,9.52,0,0,0-2.22-3,3.61,3.61,0,0,0-2.78-1.14c-1,.67-3.31,4.22-6.18,9.18h0c1.17.32,4.59,1,6.33.1s3.15-3.38,3.54-4.27A1.36,1.36,0,0,1,275.49,78.85Z"/><path class="cls-1" d="M323.3,45.88l2.13,1.06a.14.14,0,0,0,0-.07c-.07.23.07.8,1.07,1.47a4.19,4.19,0,0,0,3.07.86,1.4,1.4,0,0,1,1.35.42q.66-1,1.32-1.92v0a2.7,2.7,0,0,0-1-3,4.9,4.9,0,0,0-3.91-.64A12.45,12.45,0,0,0,323.3,45.88Z"/><path class="cls-1" d="M339.9,45.9a1.36,1.36,0,0,1,.16,1.91,4.55,4.55,0,0,0-1.22,2.4,32.19,32.19,0,0,0,4.4,3c1.3-2.73,2-5.14,1.32-5.88-1.61-1.76-3.2-2.08-4.83-1.61A1.09,1.09,0,0,1,339.9,45.9Z"/><path class="cls-1" d="M343.85,86.26a1.35,1.35,0,0,1,.41,1.44c-.23.72-.73,3.06-.06,4.31a1.47,1.47,0,0,0,1,.75,1.26,1.26,0,0,1,.46.24c.5-2.52,1-5.06,1.28-6.46A6.34,6.34,0,0,0,343.85,86.26Z"/><path class="cls-2" d="M349.1,84.54a9.4,9.4,0,0,0-5.88-.93,5.53,5.53,0,0,0-1.69.65c1.55-4.7,3.78-11.23,5-13.87,1.51-3.21,2.61-7.9,1.45-10.61a3.26,3.26,0,0,0-2-1.94,8.21,8.21,0,0,0-1.93-.4c2.14-3.59,4.85-9.29,2.48-11.89-4.22-4.6-8.7-2.39-11.69-.19a5.66,5.66,0,0,0-2-2.88,7.6,7.6,0,0,0-6.1-1.12,15.53,15.53,0,0,0-5.17,2.4,48,48,0,0,0-11.77,11.61c-.67.87-1.34,1.84-2,2.78a29.55,29.55,0,0,1-4.83,5.9c-1.69,1.41-23.77,30.62-25.13,33.26a107.33,107.33,0,0,1-5.38,9.32c.68-1.59,1.33-3.25,1.87-4.88l.31-.9c1.19-3.51,4-11.73,4.46-16.87a12.71,12.71,0,0,0-4.06-10.22A6,6,0,0,0,269.81,72c-1,.23-3,.65-16.17,25.5-6.4,12-12.87,25-13.77,27.05-1.68,3.77-1.32,8.91-1,13.44.11,1.45.2,2.83.22,4,0,1.58,0,3.19,0,4.88a62.41,62.41,0,0,0,.61,12.69c.3,1.55.61,3.1.91,4.65.72,3.65,1.47,7.43,2.07,11.2.85,5.29,2.16,9.23,4.11,12.37a18.81,18.81,0,0,0,2.54,3.26c3.52,3.59,9.06,6.7,17.71,6.7,7.53,0,17.42-2.36,30.37-8.85,5.14-2.58,8.85-5.47,11.36-8.85,1.39-1.89,2.68-3.9,3.93-5.84.87-1.35,1.77-2.75,2.68-4.07,2.26-3.26,4.31-6.53,6.57-10.16L323,158.2c2.58-4.12,5.24-8.39,7.66-12.57,2.1-3.63,3-7.81,3.79-11.86.23-1.08.45-2.15.69-3.2a99,99,0,0,1,5.28-16.21,49.28,49.28,0,0,1,2.52-4.85c1.62-2.86,3.29-5.83,3.92-8.92L349.77,86l.19-1Zm-8.48,23.64A52,52,0,0,0,338,113.3,102.27,102.27,0,0,0,332.53,130c-.24,1.07-.47,2.16-.69,3.26-.8,3.84-1.61,7.8-3.49,11.05-2.4,4.14-5.05,8.39-7.61,12.49l-1.14,1.83c-2.24,3.6-4.28,6.84-6.5,10.06-.94,1.35-1.85,2.77-2.73,4.14-1.23,1.91-2.49,3.88-3.84,5.69-2.24,3-5.64,5.66-10.38,8-26.36,13.2-39,8.74-44.93,2.68a16.36,16.36,0,0,1-2.17-2.79c-1.76-2.83-3-6.44-3.74-11.37-.61-3.82-1.36-7.62-2.08-11.29-.31-1.55-.61-3.09-.91-4.64a60,60,0,0,1-.57-12.12c0-1.65.07-3.35,0-5,0-1.28-.11-2.69-.22-4.18-.29-4.21-.62-9,.78-12.15,1.6-3.59,12.74-25.62,20.66-39.57a1.37,1.37,0,0,0,.58.35,19.06,19.06,0,0,0,4.59.63,8.48,8.48,0,0,0,3.69-.72c2.26-1.13,3.8-3.65,4.46-4.9a8.94,8.94,0,0,1,.1,2.26c-.47,4.82-3.18,12.83-4.33,16.25l-.31.91a98.54,98.54,0,0,1-6.69,14.62l-.67,1.19a29.8,29.8,0,0,1-5,4.93,1.36,1.36,0,0,0-.22,1.91,1.34,1.34,0,0,0,1.07.51,1.43,1.43,0,0,0,.49-.1c-.45,1.82-.92,4-1.33,6a1.36,1.36,0,0,0,1.06,1.6,1.24,1.24,0,0,0,.27,0,1.36,1.36,0,0,0,1.33-1.08c.79-3.79,1.85-8.29,2.16-8.91a1.32,1.32,0,0,0,.22-.79,15.54,15.54,0,0,0,2.88-3.68c1.3-1,6.07-5.3,12.91-18.51,1.21-2.34,22.71-30.83,24.46-32.42a31.64,31.64,0,0,0,5.33-6.45c.65-.95,1.27-1.85,1.9-2.67a45.92,45.92,0,0,1,10.86-10.83c-.27,1.07-.07,2.89,2.19,4.4A7.42,7.42,0,0,0,329.15,52h.23c-13.41,20-30.45,50-30.63,50.29a1.36,1.36,0,1,0,2.36,1.34c.2-.35,19.91-35,33.55-54.55l.14-.11A30,30,0,0,1,337.27,47c-1.11,1.68-1.72,3.75-.38,5.09A33.74,33.74,0,0,0,342,55.67c-.49.86-1,1.72-1.57,2.54-2.8,2.21-6.43,9.94-11.22,20.55-1.91,4.24-3.72,8.25-4.86,10.17-3.44,5.82-8.79,24.3-9,25.08a1.35,1.35,0,0,0,.93,1.68,1.18,1.18,0,0,0,.37,0,1.36,1.36,0,0,0,1.31-1c.05-.19,5.47-18.93,8.74-24.45,1.21-2,3-5.93,5-10.43,2.25-5,5-11.18,7.38-15.32.13,1.46.69,4,3.07,5.16a1.3,1.3,0,0,0,.6.15,1.37,1.37,0,0,0,1.22-.75,1.36,1.36,0,0,0-.61-1.82c-1.74-.88-1.6-3.6-1.59-3.65a1.37,1.37,0,0,0-1.24-1.45,8.55,8.55,0,0,1,1.58-1.87,5.17,5.17,0,0,1,3.09.08.76.76,0,0,1,.35.43c.59,1.39.22,4.91-1.42,8.4-2.06,4.37-6.48,18.28-6.84,19.4-.65,1.54-10.76,25.48-12.31,32a33.14,33.14,0,0,0,.25,14.22,1.37,1.37,0,0,0,1.32,1,1.4,1.4,0,0,0,.34-.05,1.35,1.35,0,0,0,1-1.65c0-.07-1.71-6.8-.25-12.9s11.36-29.59,12.16-31.47a13.34,13.34,0,0,1,1.71-2,8.52,8.52,0,0,0,.37,5.56,4.18,4.18,0,0,0,2.6,2.08,1.24,1.24,0,0,0,.38,0,1.19,1.19,0,0,0,.37-.06c-.45,2.31-.83,4.23-.93,4.69C343.7,102.73,342.13,105.5,340.62,108.18ZM274.19,79.67c-.39.89-1.78,3.39-3.54,4.27s-5.16.22-6.33-.1h0c2.87-5,5.17-8.51,6.18-9.18a3.61,3.61,0,0,1,2.78,1.14,9.52,9.52,0,0,1,2.22,3A1.36,1.36,0,0,0,274.19,79.67Zm57-35a2.7,2.7,0,0,1,1,3v0q-.66.94-1.32,1.92a1.4,1.4,0,0,0-1.35-.42,4.19,4.19,0,0,1-3.07-.86c-1-.67-1.14-1.24-1.07-1.47a.14.14,0,0,1,0,.07l-2.13-1.06a12.45,12.45,0,0,1,4-1.86A4.9,4.9,0,0,1,331.23,44.66Zm13.33,2.72c.67.74,0,3.15-1.32,5.88a32.19,32.19,0,0,1-4.4-3,4.55,4.55,0,0,1,1.22-2.4,1.36,1.36,0,0,0-.16-1.91,1.09,1.09,0,0,0-.17-.13C341.36,45.3,343,45.62,344.56,47.38ZM345.62,93a1.26,1.26,0,0,0-.46-.24,1.47,1.47,0,0,1-1-.75c-.67-1.25-.17-3.59.06-4.31a1.35,1.35,0,0,0-.41-1.44,6.34,6.34,0,0,1,3,.28C346.62,87.94,346.12,90.48,345.62,93Z"/><path class="cls-4" d="M261.17,48.69l13-5.83c-79-49.4-153.57.89-153.57.89"/><line class="cls-4" x1="269.25" y1="27.14" x2="274.64" y2="43.3"/></svg>