<svg id="Layer_1" data-name="Layer 1" xmlns="http://www.w3.org/2000/svg" viewBox="0 0 414 220"><defs><style>.cls-1{fill:#37c0cc;}.cls-2{fill:#fff;}</style></defs><title>exercise2</title><path class="cls-1" d="M274.73,71.08l-1.61-3.58L284,62.65c-42.87-25.48-84.15-23.72-111.51-17.6-30.48,6.81-50.8,20.34-51,20.47l-2.2-3.25c.85-.57,21-14,52.19-21,28.79-6.46,72.59-8.24,117.76,20A2,2,0,0,1,289,64.7Z"/><rect class="cls-1" x="283.74" y="45.26" width="3.93" height="18.62" transform="translate(-2.6 93.15) rotate(-18.43)"/><path class="cls-2" d="M122.78,146.36c-1.72,4.59-7.92,8.71-9.1,9.38-4.42,2.53-9.08,7.22-14.08,8.34-.82.18-1.65.24-2.47.43C92,165.75,85.52,171.26,83,175.82c-3.21,5.74,2,8.1,2,8.1,3.29.63,6.57-1,9.17-2.87,3.1-2.22,6.64-.88,10.38-1.42,5.34-.76,10.11-3.61,15.06-5.74,7.53-3.23,15.45-3.23,23.09-5.66,2.39-.76,12.87-2.5,20.05-3.64,4.36-.7,11.44-3.69,13.21-7.74,1.94-4.46,5.37-10.13,5.74-15.41.64-8.91-3.23-25.35-5.42-25.86S148.61,97,146.08,95.84s-13.21-5.37-16.92-5.71S97,78.8,96,78.63s-5.56-2.8-7.61-.33c-.72.87.17,1.68-.84,1.35S74.88,73.57,73.36,72.9s-3.88-.68-4.73.67a11.44,11.44,0,0,0-1.18,3.55l-2.52-.63a4.48,4.48,0,0,0-5.23,2.67A8.27,8.27,0,0,0,59,81.5a5.48,5.48,0,0,0,1.35,2.87,3.92,3.92,0,0,0-2.64,1.89c-1,1.69-1.2,2.8-.18,6.51S68.47,101.42,70.83,104s28.94,18.8,37.21,21.16C108,125.11,125.54,139,122.78,146.36Z"/><path class="cls-1" d="M86.5,185.27a9.05,9.05,0,0,1-1.73-.16v0a6.43,6.43,0,0,1-3.23-2.78c-.84-1.42-1.45-3.81.38-7.08,2.59-4.64,9.21-10.53,14.93-11.9.48-.11,1-.18,1.4-.25s.74-.11,1.08-.18c3-.68,6.08-2.88,9-5a54.92,54.92,0,0,1,4.74-3.2c1.34-.76,7-4.72,8.57-8.76h0c.94-2.5-1.22-6.8-6.08-12.11a85.33,85.33,0,0,0-8.1-7.62c-8.57-2.61-35-18.72-37.53-21.43a32.71,32.71,0,0,0-4.48-3.3c-4.09-2.74-8.31-5.57-9.08-8.38-1-3.78-1-5.31.32-7.45a5.43,5.43,0,0,1,1.8-1.83,5,5,0,0,1-.69-2.31,7.67,7.67,0,0,1,.76-2.79,5.71,5.71,0,0,1,6.65-3.39l1.31.32a9.83,9.83,0,0,1,1.08-2.71c1.18-1.89,4.16-2.07,6.24-1.14.61.27,2.72,1.29,5.16,2.48,2.64,1.28,6.36,3.08,8.06,3.86a2.37,2.37,0,0,1,.37-.61c2.18-2.62,6.07-1.11,7.94-.38a7.92,7.92,0,0,0,.81.29c.37.07,1.75.57,7.45,2.68,8.11,3,23.22,8.6,25.63,8.82,4.08.37,15.08,4.77,17.32,5.82,1.11.51,5.39,3.42,12.29,8.11,6.52,4.43,16.38,11.13,17.7,11.55.58.14,2.43.56,4.66,10.69a63.15,63.15,0,0,1,1.67,16.43c-.3,4.25-2.42,8.62-4.28,12.47-.57,1.18-1.11,2.29-1.56,3.34-2,4.59-9.47,7.7-14.13,8.44-11.06,1.76-18.11,3-19.87,3.6A79.8,79.8,0,0,1,133,171.66c-4.48.8-8.72,1.56-12.89,3.35-1.25.53-2.53,1.13-3.76,1.71-3.67,1.73-7.46,3.52-11.61,4.11a22.82,22.82,0,0,1-4,.12c-2.22-.06-4.14-.12-5.83,1.08C91.83,184.2,89.08,185.27,86.5,185.27Zm-1.11-2.51c2.34.39,5-.49,8.07-2.7,2.36-1.68,4.88-1.6,7.32-1.53a20.68,20.68,0,0,0,3.6-.09c3.79-.55,7.25-2.18,10.92-3.91,1.25-.59,2.54-1.2,3.84-1.75a59.83,59.83,0,0,1,13.41-3.51,77.47,77.47,0,0,0,9.79-2.2c2.39-.76,12.32-2.42,20.22-3.68,4.05-.64,10.76-3.51,12.29-7,.47-1.09,1-2.22,1.6-3.42,1.77-3.66,3.77-7.81,4.05-11.59A60.46,60.46,0,0,0,179,126.3c-1.32-6.25-2.66-9.09-3.16-9.58-1.49-.49-6.76-4-18.34-11.86-5.39-3.67-11-7.46-12-7.92-2.81-1.31-13.12-5.29-16.52-5.6-2.52-.23-13.86-4.37-26.25-9-3.42-1.26-6.64-2.46-7.07-2.57a7.16,7.16,0,0,1-1.23-.41c-1.44-.56-4.13-1.61-5.19-.33,0,0,0,.05,0,.26a1.49,1.49,0,0,1-.55,1.34,1.7,1.7,0,0,1-1.57.13c-.65-.22-4.06-1.87-9.2-4.36-2.32-1.12-4.51-2.18-5.08-2.44-1.19-.53-2.81-.42-3.21.21a9.87,9.87,0,0,0-1,3.09l-.2,1.31-3.81-.94a3.27,3.27,0,0,0-3.82,1.94,7,7,0,0,0-.59,1.89,4.2,4.2,0,0,0,1,2.07l1.52,1.72-2.27.28a2.75,2.75,0,0,0-1.75,1.31c-.75,1.26-1,2-.06,5.57.53,1.94,4.9,4.87,8.09,7a32.66,32.66,0,0,1,4.91,3.67c2,2.16,28.4,18.46,36.66,20.83l.23.06.19.15c1.86,1.48,18.1,14.7,15.13,22.62h0c-2.06,5.49-9.56,10-9.64,10-1.45.84-2.94,1.92-4.52,3.06-3.13,2.27-6.36,4.62-9.9,5.41-.43.09-.85.16-1.25.22s-.82.12-1.19.21c-5,1.2-11.09,6.62-13.39,10.72a5.05,5.05,0,0,0-.72,4A4.49,4.49,0,0,0,85.39,182.76Zm37.39-36.4h0Zm53-29.67Z"/><path class="cls-1" d="M125.79,94.3a1.07,1.07,0,0,1-.39-.07C87.57,81.48,86.92,80.77,86.64,80.47a1.23,1.23,0,0,1,.07-1.72,1.21,1.21,0,0,1,1.55-.07c1.77.95,23.58,8.43,37.92,13.26a1.21,1.21,0,0,1-.39,2.36ZM88.42,78.83Z"/><path class="cls-1" d="M131.11,99.44l-.21,0c-9.69-1.72-32.36-5.82-33.77-6.67-.85-.51-9.53-3.89-13.7-5.51-3.23-1.26-4.08-1.59-4.27-1.69-.57-.28-10.37-6.21-12.33-7.4a1.21,1.21,0,0,1,1.25-2.07c4.62,2.79,11.67,7,12.17,7.31.2.09,2.07.82,4.06,1.59,7,2.74,12.93,5.06,14,5.67,1.66.67,21.08,4.27,33,6.38a1.21,1.21,0,0,1,1,1.41A1.2,1.2,0,0,1,131.11,99.44ZM98.35,90.66l0,0Z"/><path class="cls-1" d="M126,111.89a1.07,1.07,0,0,1-.39-.07c-1.07-.36-26.25-8.92-28.75-10.17s-36.61-16-36.95-16.17a1.21,1.21,0,1,1,1-2.22c1.41.61,34.61,15,37.07,16.22,2,1,21.2,7.59,28.45,10a1.21,1.21,0,0,1-.39,2.36Z"/><path class="cls-1" d="M65.84,91.78l-.4,0a22.71,22.71,0,0,1-6.87-1.58,1.21,1.21,0,1,1,1-2.22,21.08,21.08,0,0,0,6.07,1.39A1.75,1.75,0,0,0,66.91,89a1.9,1.9,0,0,0,.2-1.31,1.21,1.21,0,0,1,2.36-.54,4.17,4.17,0,0,1-.72,3.42A3.61,3.61,0,0,1,65.84,91.78Z"/><path class="cls-1" d="M67,84.63a12,12,0,0,1-5.7-1.58A1.21,1.21,0,0,1,62.6,81s4.3,2.55,7.8.25a.65.65,0,0,0,.21-.19,1.17,1.17,0,0,0-.32-.58A1.21,1.21,0,0,1,72,78.75a3.38,3.38,0,0,1,1,2.53,2.66,2.66,0,0,1-1.29,2A8.41,8.41,0,0,1,67,84.63Z"/><path class="cls-1" d="M74.37,80.75a15.38,15.38,0,0,1-2.51-.2,1.21,1.21,0,0,1,.4-2.39c1.33.23,3.83.32,4.91-.38a2.89,2.89,0,0,0,1.45-1.87,1.19,1.19,0,0,1,1.29-1.1A1.21,1.21,0,0,1,81,76.12a5.15,5.15,0,0,1-2.55,3.7A7.85,7.85,0,0,1,74.37,80.75Z"/><path class="cls-1" d="M94.57,83a1.21,1.21,0,0,1-.12-2.42,5.84,5.84,0,0,0-.77-1,1.21,1.21,0,0,1,1.68-1.74c.65.62,2.1,2.24,1.57,3.7A2.3,2.3,0,0,1,94.66,83ZM94.63,81Z"/><path class="cls-1" d="M86.35,181.72a1.21,1.21,0,0,1-.86-2.06,8.82,8.82,0,0,1,6.88-2.38c3.62.49,4.43,1.65,4.47,2.53a1.22,1.22,0,0,1-1.15,1.27,1.25,1.25,0,0,1-1.17-.72,6,6,0,0,0-2.47-.68,6.44,6.44,0,0,0-4.85,1.69A1.22,1.22,0,0,1,86.35,181.72Zm8.07-1.79h0Zm0,0Zm0,0Zm0,0Zm0,0Z"/><path class="cls-1" d="M104.5,124.08l-30.22,27.7a3.86,3.86,0,0,1-2.61,1H30a3.86,3.86,0,0,1-2.4-6.88L75,108.2"/><path class="cls-2" d="M309.89,146.37c-2.44-2.83-5.34-7.7-8.4-9.84s-6.9-.47-10.51-.69l-29-1.73c-4.05-.24-8.09,1.45-12.12,1-2.43-.27-7-.42-9.06-2-1.45-1.08-2.9-5.42-2.9-5.42a3.74,3.74,0,0,1,.95-4c1.88-1.65,6.92-2.71,6.92-2.71s-1.65-3.63-.72-5a7.31,7.31,0,0,1,6.2-3.65,2,2,0,0,1,0-2.58c2.56-2.57,6.05-3.66,9.3-5.06,3.56-1.54,6.93-3.58,10.52-5.13,8.15-3.5,16.66-6.17,25.07-8.93,8.13-2.67,16.29-5.3,24.53-7.62,3.15-.88,8.54-3.31,11.9-2.45s28.51,22.62,38.24,31.15a18,18,0,0,1,5.12,7.51c6.91,18.68-4.52,38.38-8.84,44-2.08,2.71-3.26,3.47-6,4-13.67,2.61-24.4-.34-37.33-4.62,0,0-20.87-5.31-24.79-6.35s-17-2.73-20.39-4.28a19.88,19.88,0,0,1-5.52-3.78"/><path class="cls-1" d="M350.94,169.37c-9.45,0-17.95-2.49-27.5-5.65-1.05-.26-21-5.33-24.75-6.33-1.43-.38-4.24-.87-7.22-1.39-5.21-.91-11.11-1.94-13.37-3a21.09,21.09,0,0,1-5.9-4,1.21,1.21,0,0,1,1.75-1.68,18.92,18.92,0,0,0,5.16,3.52c2,.9,8,1.95,12.78,2.79,3.16.55,5.89,1,7.41,1.42,3.87,1,24.57,6.29,24.78,6.35l.08,0c12.59,4.16,23.29,7.15,36.72,4.58,2.3-.44,3.26-1,5.26-3.54.16-.21,16.46-21.71,8.66-42.82a16.73,16.73,0,0,0-4.79-7c-20.78-18.22-35.6-30.34-37.74-30.89s-5.83.65-8.71,1.63c-.93.31-1.8.61-2.56.82-8.45,2.38-16.73,5.06-24.48,7.6l-2.93,1c-7.32,2.39-14.89,4.86-22,7.94-1.77.76-3.53,1.67-5.23,2.54s-3.49,1.8-5.29,2.58l-1.82.76c-2.67,1.09-5.18,2.11-7.1,4-.33.33-.09.74.08,1l1.43,1.81-2.29.16a6.16,6.16,0,0,0-5.27,3.12c-.29.43.1,2.31.81,3.87l.62,1.37-1.47.31c-1.32.28-5,1.26-6.37,2.44a2.5,2.5,0,0,0-.62,2.68c.56,1.64,1.71,4.29,2.49,4.86,1.45,1.09,4.86,1.4,7.11,1.6l1.37.14a22.29,22.29,0,0,0,6-.47,26.81,26.81,0,0,1,6-.54l29,1.73a20.52,20.52,0,0,0,3.45-.19c2.59-.3,5.28-.6,7.69,1.1,2.22,1.55,4.31,4.37,6.15,6.85.87,1.18,1.7,2.3,2.47,3.18a1.22,1.22,0,0,1-1.84,1.59c-.82-1-1.67-2.11-2.58-3.32-1.73-2.34-3.7-5-5.59-6.32-1.67-1.17-3.69-.94-6-.68a22.44,22.44,0,0,1-3.86.21l-29-1.73a24.28,24.28,0,0,0-5.48.51,24.06,24.06,0,0,1-6.69.48l-1.32-.13c-2.68-.24-6.34-.57-8.34-2.06-1.66-1.25-3-5.22-3.32-6a4.94,4.94,0,0,1,1.31-5.31c1.45-1.28,4.33-2.19,6.07-2.65-.5-1.46-.95-3.56-.09-4.86a8.38,8.38,0,0,1,5.51-4,2.86,2.86,0,0,1,.84-2.45c2.27-2.27,5.13-3.44,7.9-4.57l1.78-.74c1.73-.75,3.46-1.64,5.14-2.51s3.54-1.82,5.38-2.62c7.26-3.12,14.88-5.61,22.25-8l2.92-1c7.78-2.55,16.09-5.24,24.58-7.63.7-.2,1.55-.48,2.44-.79,3.19-1.08,7.16-2.42,10.09-1.67,3.38.86,22.93,17.55,38.73,31.41a19.11,19.11,0,0,1,5.47,8c6.61,17.88-3,37.35-9,45.14-2.24,2.91-3.68,3.86-6.71,4.44A54.7,54.7,0,0,1,350.94,169.37Z"/><path class="cls-2" d="M245.77,121s23.62-7.89,30.4-8.69,30-2.94,34.17-5"/><path class="cls-1" d="M245.77,122.22a1.21,1.21,0,0,1-.39-2.36c1-.33,23.83-7.94,30.65-8.74,1.18-.14,2.85-.32,4.83-.53,9-1,25.68-2.75,28.93-4.39a1.21,1.21,0,1,1,1.09,2.16c-3.36,1.7-16.55,3.22-29.76,4.64-2,.21-3.63.39-4.8.53-6.59.77-29.94,8.55-30.17,8.62A1.06,1.06,0,0,1,245.77,122.22Z"/><path class="cls-2" d="M251.25,112.32S287.87,95.6,295.7,95.58s23.73-3.45,23.73-3.45"/><path class="cls-1" d="M251.26,113.53a1.24,1.24,0,0,1-1.11-.71,1.22,1.22,0,0,1,.6-1.61c1.51-.68,36.95-16.82,44.95-16.84,7.6,0,23.32-3.39,23.48-3.42a1.21,1.21,0,1,1,.51,2.36c-.66.14-16.12,3.46-24,3.48-6,0-31.36,10.88-43.94,16.63A1.33,1.33,0,0,1,251.26,113.53Z"/><path class="cls-2" d="M240.56,128.94s4.24-2.06,5.9-5,1-3,1-3"/><path class="cls-1" d="M240.56,130.15a1.21,1.21,0,0,1-.53-2.29s3.92-2,5.38-4.54a11.84,11.84,0,0,0,.94-1.95,1.15,1.15,0,0,1-.08-.41,1.22,1.22,0,0,1,1.21-1.22h0a1.31,1.31,0,0,1,1.13.66c.4.67.34,1.56-1.09,4.11-1.83,3.25-6.24,5.43-6.43,5.52A1.24,1.24,0,0,1,240.56,130.15Zm6.93-8Z"/><path class="cls-2" d="M248.64,119.41s5.26-4.78,5.38-6.19.13-2.06.13-2.06,5.27-2.45,5.52-4.64"/><path class="cls-1" d="M248.64,120.62a1.23,1.23,0,0,1-.9-.4,1.21,1.21,0,0,1,.08-1.71c2.22-2,4.74-4.66,5-5.44.12-1.3.12-1.9.12-1.91v-.77l.7-.33c2.2-1,4.72-2.79,4.82-3.68a1.22,1.22,0,0,1,1.35-1.06,1.2,1.2,0,0,1,1.06,1.34c-.27,2.31-3.74,4.36-5.54,5.27,0,.35-.05.81-.1,1.4-.14,1.56-3.22,4.65-5.78,7A1.2,1.2,0,0,1,248.64,120.62Z"/><path class="cls-1" d="M284.89,136.93l-30.22,27.71a3.86,3.86,0,0,1-2.61,1H210.5a3.85,3.85,0,0,1-2.38-6.89l32.68-25.61"/></svg>