<svg id="Layer_1" data-name="Layer 1" xmlns="http://www.w3.org/2000/svg" viewBox="0 0 414 220"><defs><style>.cls-1{fill:#3d5ba9;}.cls-2{fill:#fff;}.cls-3{fill:#3c5ba8;}</style></defs><title>exercise3</title><circle class="cls-1" cx="49.12" cy="142.19" r="21.92"/><path class="cls-2" d="M130.53,108.4c-2.79-.85-5.46-3.17-7.81-4.73-4.1-2.72-8.09-5.6-12-8.54-7-5.17-14.31-9.91-20.58-15.95-2.46-2.37-9.91-14.65-14.25-12.08-5.36,3.16-3.38,6.71.15,13.25,2.46,4.55,38.44,36.44,36.91,36.58-2,.17-5-1.69-6.81-2.39-4.42-1.72-8.8-3.52-13.21-5.27A219.82,219.82,0,0,1,69.68,98.93c-3.75-2-16.2-11.57-19.81-5.28-2.93,5.09,3.93,10.46,8.48,14,5.32,4.17,52.05,26,56.53,34,5.33,9.54,3.38,21.2-.85,22.83s-12.63-9.85-28.84-10.07c-10.79-.15-11.73,3.76-11.6,5,0,.44.11-.43,0,0-1.49,6,.52,8.71,12.1,11.25,11.94,2.61,17.43,13.67,29.07,16.26,6.13,1.36,17-1.26,25.35-2.65,3.09-.52,20.21-2.18,23.82-1.41s13.63,4.23,16.23,3.73c7.36-1.4,11.21-7.14,12.81-10.08,3.71-6.8,7.82-14.78,7.9-22.68a11.79,11.79,0,0,0-2.24-7.61,15.64,15.64,0,0,0-2.7-2.44c-11.81-9.13-23.86-19-34.43-29.6-3.87-3.87-20.81-35.94-22-37.3s-5-5.91-5.76-6.82-8-.31-.31,13.34a104.21,104.21,0,0,1,10.1,24.48c-.38-1.41-3.51-3.58-4.57-4.63-1.82-1.79-3.68-3.56-5.56-5.29q-5.65-5.2-11.66-10c-4-3.2-8.33-6-12.31-9.19-3-2.45-5.31-5.81-8.45-8.25-2.73-2.12-5.46-2-5.92,2.43s8.65,13,8.65,13Z"/><path class="cls-1" d="M118.89,188.61a20.67,20.67,0,0,1-4.41-.41c-6.06-1.35-10.53-4.88-14.84-8.29s-8.5-6.72-14.22-8c-7.33-1.61-11-3.32-12.59-5.92-1.35-2.19-1-4.71-.54-6.71a4.39,4.39,0,0,1,1.22-3c1.95-2.15,5.89-3.2,11.7-3.12,10.11.14,17.4,4.58,22.23,7.51,2.7,1.65,5,3.07,6.12,2.65.88-.34,1.74-1.49,2.34-3.15,1.48-4.1,1.44-11.43-2.15-17.85-2.82-5.05-25.36-16.93-40.28-24.79-7.86-4.15-14.08-7.42-15.92-8.86-4.61-3.61-12.29-9.63-8.8-15.69a5.18,5.18,0,0,1,3.37-2.56c4.6-1.15,11.31,3.08,15.75,5.88,1,.62,1.84,1.16,2.42,1.47a221.27,221.27,0,0,0,23.08,10.28L98,109.92c2.8,1.13,5.71,2.3,8.57,3.42.52.2,1.12.49,1.76.79l.7.34c-2.84-2.8-7.4-7.08-11.6-11C85.06,91.84,76.2,83.43,74.87,81l-.1-.18c-3.46-6.4-6-11,.42-14.79,4.28-2.54,9.56,4.31,13.41,9.32A33.07,33.07,0,0,0,91,78.25,132.46,132.46,0,0,0,106,90.1c1.59,1.14,3.23,2.32,4.84,3.5L102.86,87l-.06,0c-1-.93-9.55-9.23-9-14.12.31-3,1.61-4.18,2.65-4.62,1.52-.65,3.42-.19,5.34,1.31a39,39,0,0,1,4.56,4.41,36.3,36.3,0,0,0,3.91,3.85c2,1.61,4.13,3.15,6.2,4.63s4.12,3,6.11,4.56c4,3.21,7.95,6.59,11.72,10.07,1.89,1.73,3.78,3.53,5.6,5.32.2.2.53.48.89.78a105.11,105.11,0,0,0-8.45-19.07c-2.44-4.31-5.91-12-1.76-14.84,1.41-1,3.36-1,4.18,0,2.94,3.53,5,5.93,5.73,6.79.47.53,1.86,3,5.72,9.95,5.17,9.3,13.83,24.87,16.25,27.3,11.72,11.72,25.19,22.44,34.31,29.48a17.19,17.19,0,0,1,2.91,2.65,13,13,0,0,1,2.53,8.44c-.08,8-4,15.89-8.06,23.29-2.25,4.13-6.46,9.35-13.7,10.73-1.93.36-6.17-.78-11.94-2.44-1.91-.55-3.71-1.06-4.8-1.3-3.19-.68-19.78.83-23.34,1.42-1.65.27-3.36.59-5.18.93C129.45,187.54,123.63,188.61,118.89,188.61ZM74.73,160.22c-.45,2-.36,3.38.3,4.44,1.17,1.89,4.55,3.36,10.94,4.76s10.86,5,15.27,8.46,8.31,6.58,13.8,7.8c4.66,1,12.61-.43,19.63-1.73,1.83-.34,3.56-.66,5.23-.94,2.78-.46,20.31-2.25,24.3-1.39,1.18.25,2.94.76,5,1.34,3.69,1.06,9.27,2.67,10.75,2.38,6.25-1.19,9.93-5.78,11.92-9.43,3.88-7.1,7.67-14.66,7.74-22.07a10.79,10.79,0,0,0-1.94-6.79,15.79,15.79,0,0,0-2.5-2.23c-9.17-7.09-22.73-17.88-34.55-29.71-2.48-2.47-9.31-14.59-16.69-27.87-2.56-4.61-5-9-5.4-9.5-.77-.86-2.71-3.17-5.62-6.65a1.42,1.42,0,0,0-1.18.54c-.49.59-1.71,3.14,2.84,11.15a106.59,106.59,0,0,1,10.21,24.78h0a1.29,1.29,0,1,1-2.49.67c-.17-.62-2.07-2.21-2.88-2.88-.54-.45-1-.84-1.34-1.17-1.81-1.77-3.67-3.55-5.53-5.26-3.74-3.44-7.64-6.78-11.59-10-1.94-1.56-4-3-6-4.48s-4.26-3.06-6.31-4.72a39.73,39.73,0,0,1-4.19-4.11,36.5,36.5,0,0,0-4.24-4.12c-1.1-.86-2.16-1.23-2.75-1s-1,1.15-1.09,2.52c-.28,2.73,4.88,8.76,8.22,12l25.66,21.4c1.64,1.37,1.85,1.54,1.54,2.4a1.29,1.29,0,0,1-1.59.79,22.87,22.87,0,0,1-6.35-3.62c-.63-.45-1.23-.89-1.81-1.27-3.6-2.39-7.33-5-12.09-8.57-1.8-1.34-3.66-2.68-5.46-4A133.16,133.16,0,0,1,89.21,80.11a32.68,32.68,0,0,1-2.66-3.23c-2.51-3.26-7.73-10-10-8.67-4,2.4-3.17,4.48.54,11.34l.1.18C78.37,82,90.41,93.32,99.2,101.57c15.41,14.47,15.38,14.57,15,15.75a1.39,1.39,0,0,1-1.15.9c-1.8.14-3.93-.86-5.81-1.76-.59-.28-1.15-.55-1.58-.72-2.88-1.12-5.78-2.29-8.6-3.42q-2.3-.93-4.62-1.85a223.65,223.65,0,0,1-23.34-10.41c-.66-.35-1.55-.91-2.58-1.56-3.57-2.25-10.22-6.43-13.74-5.56A2.64,2.64,0,0,0,51,94.29c-2.37,4.12,3.95,9.07,8.14,12.35,1.67,1.31,8.1,4.7,15.55,8.63,20.86,11,38.37,20.52,41.33,25.81,4,7.17,4,15.2,2.31,20-.88,2.44-2.2,4.06-3.83,4.68-2.28.88-4.85-.68-8.39-2.84-4.86-3-11.52-7-20.93-7.14-6.61-.09-8.94,1.39-9.75,2.27a2.19,2.19,0,0,0-.53,1,1.74,1.74,0,0,1,0,.52A1.6,1.6,0,0,1,74.73,160.22Z"/><path class="cls-2" d="M52.08,98s1.56,2.33,4.68,0,2.18-2.56,2.18-2.56"/><path class="cls-1" d="M54.17,100.35A3.89,3.89,0,0,1,51,98.73a1.29,1.29,0,0,1,2.13-1.45,1.32,1.32,0,0,0,.82.47A2.93,2.93,0,0,0,56,97a11.44,11.44,0,0,0,1.67-1.42,1.2,1.2,0,0,1,0-.38,1.29,1.29,0,0,1,1.55-1,1.46,1.46,0,0,1,1.1,1.12c.22,1-.51,2-2.8,3.72A5.68,5.68,0,0,1,54.17,100.35Zm4.48-3.63Zm0,0Z"/><path class="cls-2" d="M75.89,73.61a3.45,3.45,0,0,0,3.73.92A7.77,7.77,0,0,0,83,73.08"/><path class="cls-1" d="M78.42,76a4.41,4.41,0,0,1-3.57-1.61,1.29,1.29,0,0,1,2.07-1.54,2.26,2.26,0,0,0,2.39.45,7.19,7.19,0,0,0,2.83-1.15,1.27,1.27,0,0,1,1.81,0,1.31,1.31,0,0,1,0,1.84,8.8,8.8,0,0,1-4,1.8A6.58,6.58,0,0,1,78.42,76Z"/><path class="cls-2" d="M95,73s2.89,3,5,2.38a10.1,10.1,0,0,0,3.4-1.78"/><path class="cls-1" d="M99.4,76.73c-2.42,0-4.79-2.35-5.29-2.88A1.29,1.29,0,1,1,96,72.07c1,1,2.81,2.3,3.67,2a9,9,0,0,0,2.94-1.52,1.29,1.29,0,1,1,1.69,1.94,11.24,11.24,0,0,1-3.87,2A3.48,3.48,0,0,1,99.4,76.73Z"/><path class="cls-2" d="M131.29,73.4s1,3.08,4.05,2.43"/><path class="cls-1" d="M134.5,77.21a4.81,4.81,0,0,1-4.44-3.42,1.3,1.3,0,0,1,.85-1.62,1.28,1.28,0,0,1,1.61.83,2.2,2.2,0,0,0,2.56,1.57,1.29,1.29,0,1,1,.53,2.52A5.53,5.53,0,0,1,134.5,77.21Z"/><path class="cls-2" d="M81.39,168.7s-1.77-1.92,2.83-7.87c1.21-1.56-6.21-2.81-8.69-2.68"/><path class="cls-1" d="M81.39,170a1.29,1.29,0,0,1-.94-.41c-.41-.44-2.15-2.88,2.28-8.91a21.88,21.88,0,0,0-7.13-1.23,1.31,1.31,0,0,1-1.36-1.22,1.29,1.29,0,0,1,1.22-1.36c1.23-.07,8.74.45,10,2.79a1.78,1.78,0,0,1-.19,2c-3.41,4.41-2.88,6.14-2.82,6.3a1.29,1.29,0,0,1-1,2.07Zm1-2.17h0Zm0,0Z"/><path class="cls-2" d="M112.91,116.93a71.66,71.66,0,0,1,9,2.89"/><path class="cls-1" d="M121.87,121.11a1.37,1.37,0,0,1-.49-.09,71.24,71.24,0,0,0-8.78-2.84,1.29,1.29,0,1,1,.61-2.5,70.08,70.08,0,0,1,9.14,2.95,1.29,1.29,0,0,1-.48,2.48Z"/><path class="cls-3" d="M279.6,186.41c-9,0-10-.95-10.47-1.43-2.75-2.75-7.05-11.38-7.8-12.91-2.94-2.72-11.39-11.06-9.81-15.16a5.09,5.09,0,0,1,4.43-3.33,27.09,27.09,0,0,1-1.55-7.18,18.54,18.54,0,0,0-.34-2.25,21.42,21.42,0,0,1-.61-2.4,23,23,0,0,0-1.34-4.58c-1.07-2.42-.64-5.57-.44-6.67a13.08,13.08,0,0,1-.79-5.37c.15-1.22,1.64-6.66,3.91-14.83,1.44-5.17,3.07-11,3.19-11.89.27-1.91,3.35-3.12,9.15-3.6.44-1.24,1.3-3.6,1.72-4.64.28-.7.85-2.14,14.4-3.65h.12c.82,0,19.92-.28,22.45-.28,1,0,4.27-.52,7.41-1,5.38-.86,9-1.41,10.36-1.24,2.51.31,5.07,3.73,5.87,4.87L373,116l.06,0c.36.29,8.84,7.19,15.42,22.07,6.79,15.35-11.63,36.54-12.42,37.44l-.34.39-.51,0c-.78.07-19.13,1.71-23.12,1.71-2.88,0-17.76,3.06-25.75,4.71-2.79.57-5,1-6.1,1.23-2.35.44-14.21,1.58-25.79,2.26C288,186.27,283.16,186.41,279.6,186.41Zm-22.87-30.3a2.75,2.75,0,0,0-2.8,1.73c-.53,1.38,3.09,6.74,9.32,12.5l.18.17.11.21c1.32,2.72,5.22,10.23,7.42,12.43,3.2,2.12,43.76-1.11,48.82-2.06,1.09-.2,3.28-.65,6.06-1.22,11.7-2.41,23.37-4.76,26.27-4.76,3.51,0,19.27-1.38,22.36-1.65,2.43-2.91,17.33-21.52,11.67-34.3-6.05-13.67-13.91-20.46-14.62-21.06l-43.9-27.36-.15-.23c-1-1.52-3.05-3.84-4.2-4s-6,.65-9.64,1.23a78.38,78.38,0,0,1-7.81,1c-2.44,0-21.11.27-22.35.28-5.09.57-11.07,1.58-12.32,2.27-.6,1.54-1.86,5.08-1.88,5.11l-.28.8-.85.06c-3.46.23-6.95,1-7.63,1.6-.22,1.2-1.39,5.43-3.23,12.06-1.65,6-3.7,13.34-3.84,14.46a10.92,10.92,0,0,0,.77,4.47l.15.37-.09.4c-.21.91-.58,3.67.2,5.43a25.92,25.92,0,0,1,1.5,5.08c.19.84.35,1.58.53,2.14a15.57,15.57,0,0,1,.46,2.75c.3,2.44.86,7,2.39,7.91l9.27,5.56-10.32-3.22A5.56,5.56,0,0,0,256.73,156.11ZM271,91.43Z"/><path class="cls-3" d="M268.06,97.33a1.29,1.29,0,0,1-.21-2.56A55.86,55.86,0,0,0,275,93.13c2.78-1,22.09-.56,25.24-.37a8.28,8.28,0,0,0,6.11-1.9,1.29,1.29,0,0,1,1.82,1.83,10.87,10.87,0,0,1-8.1,2.65c-5.72-.36-22.38-.47-24.17.2a55.35,55.35,0,0,1-7.62,1.77Z"/><path class="cls-3" d="M253,131.69a1.28,1.28,0,0,1-1.22-1.72c1.32-3.73,5.14-5.09,7.93-6.09a9.31,9.31,0,0,0,2.52-1.12c1.89-2.27,21.52-7.57,25.61-7.85,3.12-.21,8.28-4.34,10-5.91a1.29,1.29,0,0,1,1.74,1.91c-.71.64-7,6.27-11.58,6.58-4.22.28-22.26,5.55-23.83,7-.69.82-2,1.28-3.6,1.86-2.43.87-5.46,1.95-6.36,4.52A1.3,1.3,0,0,1,253,131.69Z"/><path class="cls-3" d="M272.27,155.57s-7,2.66-2.22.39a7.22,7.22,0,0,0,4.26-7.1s14.19-1.71,15.33-2.56,12.78,2.27,13.63.57,1.7,2.84,3.69,4-9.68,11.9-25.23,11.66c-1.09,0-3,.12-3,.12l-6.49-7.05"/><path class="cls-3" d="M262.38,172.58a1.29,1.29,0,0,1-1.29-1.25c-.1-2.84-.79-7.33-2-8.39a14.41,14.41,0,0,0-4-2.49A1.29,1.29,0,0,1,256,158a17.11,17.11,0,0,1,4.76,3c2.48,2.17,2.83,8.92,2.88,10.25a1.3,1.3,0,0,1-1.25,1.34Z"/><path class="cls-3" d="M275.14,119.57c-5.93,0-8-3.4-8.12-3.54a1.29,1.29,0,0,1,2.2-1.35c.08.13,1.57,2.31,5.92,2.31a1.29,1.29,0,1,1,0,2.58Z"/><path class="cls-3" d="M266.9,158.9a18.09,18.09,0,0,1-4.6-.62,1.29,1.29,0,0,1,.73-2.48c.08,0,6.39,1.83,9.37-1.45a1.29,1.29,0,1,1,1.91,1.73A9.73,9.73,0,0,1,266.9,158.9Z"/><path class="cls-1" d="M288.07,68.38l-1.43-3.72L297.18,60c-40.36-27.35-80.05-26.74-106.5-21.26-29.47,6.09-49.39,19.37-49.59,19.5l-2-3.4c.83-.55,20.62-13.76,50.75-20,27.83-5.78,69.93-6.33,112.43,23.91a2,2,0,0,1,.82,1.87,2,2,0,0,1-1.16,1.66Z"/><rect class="cls-1" x="296.81" y="42.22" width="4.03" height="19.09" transform="translate(-2.27 88.1) rotate(-16.71)"/></svg>