<svg id="Layer_1" data-name="Layer 1" xmlns="http://www.w3.org/2000/svg" xmlns:xlink="http://www.w3.org/1999/xlink" viewBox="0 0 1360 768"><defs><style>.cls-1{fill:none;}.cls-2,.cls-20,.cls-3{fill:#fff;}.cls-3{stroke:#fff;stroke-miterlimit:10;}.cls-12,.cls-4{fill:#e22e26;}.cls-5{fill:#f7964a;}.cls-14,.cls-6{fill:#37c0cc;}.cls-7{fill:#36bfcb;}.cls-15,.cls-8{fill:#3c5ba8;}.cls-9{fill:#e22d26;}.cls-10,.cls-11,.cls-13{fill:#283271;}.cls-11{font-size:30px;}.cls-11,.cls-20{font-family:Avenir-Black, Avenir;font-weight:800;}.cls-12,.cls-13,.cls-14,.cls-15,.cls-16,.cls-17{opacity:0.54;}.cls-16{fill:#f8974a;}.cls-17,.cls-18{fill:#3d5ba9;}.cls-19{opacity:0.08;fill:url(#Dex_Square_pattern);}.cls-20{font-size:24px;}</style><pattern id="Dex_Square_pattern" data-name="Dex Square pattern" width="348.64" height="358.04" patternTransform="translate(-3540.08 1126.34)" patternUnits="userSpaceOnUse" viewBox="0 0 348.64 358.04"><rect class="cls-1" width="348.64" height="358.04"/><polygon class="cls-2" points="343.18 272.92 343.18 344.15 378.1 379.41 378.1 307.49 343.18 272.92"/><polyline class="cls-3" points="332.88 421.47 261.75 350.34 332.88 279.2"/><polygon class="cls-2" points="168.86 272.92 168.86 344.15 203.78 379.41 203.78 307.49 168.86 272.92"/><polyline class="cls-2" points="329.51 267.29 258.63 338.17 187.75 267.29"/><polyline class="cls-2" points="213.84 312.79 249.82 348.77 213.84 384.75"/><polyline class="cls-3" points="158.56 421.47 87.43 350.34 158.56 279.2"/><polygon class="cls-2" points="-5.46 272.92 -5.46 344.15 29.45 379.41 29.45 307.49 -5.46 272.92"/><polyline class="cls-2" points="155.19 267.29 84.31 338.17 13.42 267.29"/><polyline class="cls-2" points="39.52 312.79 75.5 348.77 39.52 384.75"/><polyline class="cls-3" points="420.04 242.45 348.91 171.32 420.04 100.18"/><polygon class="cls-2" points="343.15 255.29 307.6 219.74 343.15 184.19 378.7 219.74 343.15 255.29"/><polygon class="cls-2" points="256.02 93.9 256.02 165.13 290.94 200.39 290.94 128.47 256.02 93.9"/><polyline class="cls-2" points="416.68 88.27 345.79 159.15 274.91 88.27"/><polyline class="cls-2" points="301 133.77 336.98 169.75 301 205.73"/><polyline class="cls-2" points="327.73 258.65 257.37 258.65 257.37 188.3"/><polyline class="cls-3" points="245.72 242.45 174.59 171.32 245.72 100.18"/><polygon class="cls-2" points="168.83 255.29 133.28 219.74 168.83 184.19 204.38 219.74 168.83 255.29"/><polygon class="cls-2" points="81.7 93.9 81.7 165.13 116.61 200.39 116.61 128.47 81.7 93.9"/><polyline class="cls-2" points="242.35 88.27 171.47 159.15 100.58 88.27"/><polyline class="cls-2" points="126.68 133.77 162.66 169.75 126.68 205.73"/><polyline class="cls-2" points="178.45 260.58 213.84 225.19 249.62 260.96"/><polyline class="cls-2" points="153.41 258.65 83.05 258.65 83.05 188.3"/><polyline class="cls-3" points="71.4 242.45 0.27 171.32 71.4 100.18"/><polygon class="cls-2" points="-5.49 255.29 -41.04 219.74 -5.49 184.19 30.06 219.74 -5.49 255.29"/><polyline class="cls-2" points="68.03 88.27 -2.85 159.15 -73.74 88.27"/><polyline class="cls-2" points="4.13 260.58 39.52 225.19 75.29 260.96"/><polygon class="cls-2" points="343.18 -85.12 343.18 -13.89 378.1 21.37 378.1 -50.55 343.18 -85.12"/><polyline class="cls-2" points="414.89 79.63 344.53 79.63 344.53 9.28"/><polyline class="cls-3" points="332.88 63.43 261.75 -7.7 332.88 -78.84"/><polygon class="cls-2" points="255.99 76.27 220.44 40.72 255.99 5.17 291.54 40.72 255.99 76.27"/><polygon class="cls-2" points="168.86 -85.12 168.86 -13.89 203.78 21.37 203.78 -50.55 168.86 -85.12"/><polyline class="cls-2" points="213.84 -45.25 249.82 -9.27 213.84 26.71"/><polyline class="cls-2" points="265.61 81.56 301 46.17 336.78 81.94"/><polyline class="cls-2" points="240.57 79.63 170.21 79.63 170.21 9.28"/><polyline class="cls-3" points="158.56 63.43 87.43 -7.7 158.56 -78.84"/><polygon class="cls-2" points="81.67 76.27 46.12 40.72 81.67 5.17 117.22 40.72 81.67 76.27"/><polygon class="cls-2" points="-5.46 -85.12 -5.46 -13.89 29.45 21.37 29.45 -50.55 -5.46 -85.12"/><polyline class="cls-2" points="39.52 -45.25 75.5 -9.27 39.52 26.71"/><polyline class="cls-2" points="91.29 81.56 126.68 46.17 162.45 81.94"/><polyline class="cls-2" points="66.24 79.63 -4.11 79.63 -4.11 9.28"/></pattern></defs><title>Artboard 4hands</title><rect class="cls-4" x="661.91" y="328.31" width="32.63" height="32.63" rx="2.96" transform="translate(442.34 -378.64) rotate(45)"/><path class="cls-5" d="M664.75,306.5l-33.11-33.11a2.92,2.92,0,0,0-2.07-.86l-30-.15a3,3,0,0,0-2.11,5.05l33.41,33.4a2.94,2.94,0,0,0,2.1.87l29.7-.15A3,3,0,0,0,664.75,306.5Z"/><path class="cls-6" d="M683.48,297.33l20.7-20.7a3,3,0,0,0,0-4.19l-20.7-20.7a3,3,0,0,0-5.05,2.09v41.41A3,3,0,0,0,683.48,297.33Z"/><path class="cls-5" d="M697.33,386.08l33.1,33.1a2.94,2.94,0,0,0,2.08.86l30,.15a3,3,0,0,0,2.11-5.05l-33.4-33.4a3,3,0,0,0-2.11-.87l-29.69.15A3,3,0,0,0,697.33,386.08Z"/><path class="cls-5" d="M719.25,335.25l33.25-33a3,3,0,0,0,.88-2.07l.28-30a3,3,0,0,0-5-2.13l-33.54,33.25a3,3,0,0,0-.88,2.11l0,29.69A3,3,0,0,0,719.25,335.25Z"/><path class="cls-5" d="M612.16,429.23l33.1-33.1a3,3,0,0,0,.87-2.08l.15-30a3,3,0,0,0-5.06-2.11l-33.4,33.4a2.93,2.93,0,0,0-.86,2.11l.14,29.7A3,3,0,0,0,612.16,429.23Z"/><path class="cls-6" d="M771.71,351.75,751,372.45a3,3,0,0,1-4.19,0l-20.7-20.7a3,3,0,0,1,2.09-5.05h41.41A3,3,0,0,1,771.71,351.75Z"/><path class="cls-6" d="M673.4,436.26l-20.71-20.7a3,3,0,0,1,0-4.19l20.71-20.7a3,3,0,0,1,5.05,2.09v41.41A3,3,0,0,1,673.4,436.26Z"/><path class="cls-6" d="M630.88,342.53l-20.7-20.7a3,3,0,0,0-4.19,0l-20.7,20.7a3,3,0,0,0,2.09,5.05h41.41A3,3,0,0,0,630.88,342.53Z"/><path class="cls-7" d="M600,116.38l15.19-15.18a1.19,1.19,0,0,0,.34-.8L615.8,89a1.11,1.11,0,0,0-1.91-.78L598.58,103.5a1.14,1.14,0,0,0-.34.81l-.12,11.31A1.1,1.1,0,0,0,600,116.38Z"/><path class="cls-8" d="M616.19,83.73V70.6a1.15,1.15,0,0,0-1.1-1.2H603a1.22,1.22,0,0,0-.78,2l12.1,13.13A1.1,1.1,0,0,0,616.19,83.73Z"/><path class="cls-5" d="M612.23,66.24H599.29A1.21,1.21,0,0,1,598.08,65V51.94a1.21,1.21,0,0,1,2.07-.85l12.94,13.09A1.21,1.21,0,0,1,612.23,66.24Z"/><path class="cls-9" d="M621.48,96.84l12.93-12.93a1.11,1.11,0,0,0,0-1.58L621.48,69.39a1.12,1.12,0,0,0-1.91.79V96.05A1.12,1.12,0,0,0,621.48,96.84Z"/><path class="cls-10" d="M604.2,92.75l6.21-6.21a.54.54,0,0,0,0-.76l-6.21-6.2a.53.53,0,0,0-.91.37V92.37A.53.53,0,0,0,604.2,92.75Z"/><text class="cls-11" transform="translate(659.79 93.9)">Level 1</text><text class="cls-11" transform="translate(603.38 512.35)">Good Job!</text><path class="cls-12" d="M1360.09,583.52v88a5,5,0,0,1-5,5h-88a5,5,0,0,1-3.56-8.59l88-88A5,5,0,0,1,1360.09,583.52Z"/><rect class="cls-13" x="1166.82" y="532.3" width="52.56" height="52.56" rx="5.03"/><path class="cls-14" d="M1266.34,295.06v87.62a5,5,0,0,1-5,5h-87.62a5,5,0,0,1-3.56-8.6l87.62-87.62A5,5,0,0,1,1266.34,295.06Z"/><polyline class="cls-15" points="1192.03 766.17 1229.65 728.55 1267.27 766.17"/><path class="cls-16" d="M1335.46,467.11,1310.31,442a5,5,0,0,0-7.12,0l-24.74,24.74a5,5,0,0,0,3.51,8.6l49.9.4A5,5,0,0,0,1335.46,467.11Z"/><path class="cls-17" d="M1359.08,228.33h-56.37a5,5,0,0,1-5-5V166.93a5,5,0,0,1,8.59-3.56l56.37,56.37A5,5,0,0,1,1359.08,228.33Z"/><path class="cls-12" d="M1242.41,45.4v88a5,5,0,0,1-5,5h-88a5,5,0,0,1-3.56-8.6l88-88A5,5,0,0,1,1242.41,45.4Z"/><path class="cls-12" d="M135.57,484.12h-89a4.75,4.75,0,0,1-4.75-4.75v-89A4.75,4.75,0,0,1,50,387.05l89,89A4.75,4.75,0,0,1,135.57,484.12Z"/><rect class="cls-13" x="156.01" y="325.55" width="52.56" height="52.56" rx="4.75" transform="translate(364.58 703.66) rotate(-180)"/><path class="cls-14" d="M86.14,256.32H-2.45a4.75,4.75,0,0,1-4.75-4.75V163a4.75,4.75,0,0,1,8.11-3.36L89.5,248.21A4.75,4.75,0,0,1,86.14,256.32Z"/><path class="cls-16" d="M204.73,171.73,179.29,146.3a4.75,4.75,0,0,0-6.71,0l-25.85,25.85a4.75,4.75,0,0,0,3.4,8.11l51.28-.42A4.75,4.75,0,0,0,204.73,171.73Z"/><path class="cls-17" d="M224,520.76V578.1a4.75,4.75,0,0,1-4.75,4.75H161.91a4.74,4.74,0,0,1-3.35-8.1L215.9,517.4A4.75,4.75,0,0,1,224,520.76Z"/><path class="cls-12" d="M207.1,79.07h-89a4.75,4.75,0,0,1-4.75-4.75v-89A4.75,4.75,0,0,1,121.49-18l89,89A4.74,4.74,0,0,1,207.1,79.07Z"/><path class="cls-14" d="M154.45,725.06H65.85a4.75,4.75,0,0,1-4.75-4.75V631.72a4.75,4.75,0,0,1,8.11-3.36L157.8,717A4.75,4.75,0,0,1,154.45,725.06Z"/><path class="cls-16" d="M1349.89,18.05,1324.74-7.1a5,5,0,0,0-7.12,0l-24.75,24.75a5,5,0,0,0,3.52,8.59l49.9.41A5,5,0,0,0,1349.89,18.05Z"/><rect class="cls-6" x="0.5" y="660.5" width="39" height="107"/><rect class="cls-18" x="-41.27" y="660.48" width="1420.01" height="127.86"/><rect class="cls-19" x="-62.26" y="660.34" width="1498" height="153"/><path class="cls-2" d="M734.55,723.77l10.86-10.87a.92.92,0,0,0,0-1.32l-10.86-10.87a.94.94,0,0,0-1.6.66V723.1A.94.94,0,0,0,734.55,723.77Z"/><text class="cls-20" transform="translate(614.32 717.45)">Continue</text></svg>