<svg id="Layer_1" data-name="Layer 1" xmlns="http://www.w3.org/2000/svg" xmlns:xlink="http://www.w3.org/1999/xlink" viewBox="0 0 1360 768"><defs><style>.cls-1,.cls-17{fill:none;}.cls-2,.cls-3,.cls-9{fill:#fff;}.cls-3{stroke:#fff;stroke-miterlimit:10;}.cls-4,.cls-7{fill:#3d5ba9;}.cls-4{opacity:0.36;}.cls-11,.cls-5{fill:#3c5ba8;}.cls-5,.cls-6{opacity:0.75;}.cls-16,.cls-6{fill:#37c0cc;}.cls-8{opacity:0.08;fill:url(#Dex_Square_pattern);}.cls-18,.cls-9{font-size:24px;}.cls-15,.cls-18,.cls-9{font-family:Avenir-Black, Avenir;font-weight:800;}.cls-10{fill:#36bfcb;}.cls-12,.cls-19{fill:#f7964a;}.cls-13{fill:#e22d26;}.cls-14,.cls-15{fill:#283271;}.cls-15{font-size:30px;}.cls-17{stroke:#3c5ba8;stroke-linejoin:round;stroke-width:4px;}.cls-18{fill:#e22e26;}.cls-19{font-size:22px;font-family:Avenir-Medium, Avenir;font-weight:500;}.cls-20{letter-spacing:-0.02em;}</style><pattern id="Dex_Square_pattern" data-name="Dex Square pattern" width="348.64" height="358.04" patternTransform="translate(-3685.25 1121.49)" patternUnits="userSpaceOnUse" viewBox="0 0 348.64 358.04"><rect class="cls-1" width="348.64" height="358.04"/><polygon class="cls-2" points="343.18 272.92 343.18 344.15 378.1 379.41 378.1 307.49 343.18 272.92"/><polyline class="cls-3" points="332.88 421.47 261.75 350.34 332.88 279.2"/><polygon class="cls-2" points="168.86 272.92 168.86 344.15 203.78 379.41 203.78 307.49 168.86 272.92"/><polyline class="cls-2" points="329.51 267.29 258.63 338.17 187.75 267.29"/><polyline class="cls-2" points="213.84 312.79 249.82 348.77 213.84 384.75"/><polyline class="cls-3" points="158.56 421.47 87.43 350.34 158.56 279.2"/><polygon class="cls-2" points="-5.46 272.92 -5.46 344.15 29.45 379.41 29.45 307.49 -5.46 272.92"/><polyline class="cls-2" points="155.19 267.29 84.31 338.17 13.42 267.29"/><polyline class="cls-2" points="39.52 312.79 75.5 348.77 39.52 384.75"/><polyline class="cls-3" points="420.04 242.45 348.91 171.32 420.04 100.18"/><polygon class="cls-2" points="343.15 255.29 307.6 219.74 343.15 184.19 378.7 219.74 343.15 255.29"/><polygon class="cls-2" points="256.02 93.9 256.02 165.13 290.94 200.39 290.94 128.47 256.02 93.9"/><polyline class="cls-2" points="416.68 88.27 345.79 159.15 274.91 88.27"/><polyline class="cls-2" points="301 133.77 336.98 169.75 301 205.73"/><polyline class="cls-2" points="327.73 258.65 257.37 258.65 257.37 188.3"/><polyline class="cls-3" points="245.72 242.45 174.59 171.32 245.72 100.18"/><polygon class="cls-2" points="168.83 255.29 133.28 219.74 168.83 184.19 204.38 219.74 168.83 255.29"/><polygon class="cls-2" points="81.7 93.9 81.7 165.13 116.61 200.39 116.61 128.47 81.7 93.9"/><polyline class="cls-2" points="242.35 88.27 171.47 159.15 100.58 88.27"/><polyline class="cls-2" points="126.68 133.77 162.66 169.75 126.68 205.73"/><polyline class="cls-2" points="178.45 260.58 213.84 225.19 249.62 260.96"/><polyline class="cls-2" points="153.41 258.65 83.05 258.65 83.05 188.3"/><polyline class="cls-3" points="71.4 242.45 0.27 171.32 71.4 100.18"/><polygon class="cls-2" points="-5.49 255.29 -41.04 219.74 -5.49 184.19 30.06 219.74 -5.49 255.29"/><polyline class="cls-2" points="68.03 88.27 -2.85 159.15 -73.74 88.27"/><polyline class="cls-2" points="4.13 260.58 39.52 225.19 75.29 260.96"/><polygon class="cls-2" points="343.18 -85.12 343.18 -13.89 378.1 21.37 378.1 -50.55 343.18 -85.12"/><polyline class="cls-2" points="414.89 79.63 344.53 79.63 344.53 9.28"/><polyline class="cls-3" points="332.88 63.43 261.75 -7.7 332.88 -78.84"/><polygon class="cls-2" points="255.99 76.27 220.44 40.72 255.99 5.17 291.54 40.72 255.99 76.27"/><polygon class="cls-2" points="168.86 -85.12 168.86 -13.89 203.78 21.37 203.78 -50.55 168.86 -85.12"/><polyline class="cls-2" points="213.84 -45.25 249.82 -9.27 213.84 26.71"/><polyline class="cls-2" points="265.61 81.56 301 46.17 336.78 81.94"/><polyline class="cls-2" points="240.57 79.63 170.21 79.63 170.21 9.28"/><polyline class="cls-3" points="158.56 63.43 87.43 -7.7 158.56 -78.84"/><polygon class="cls-2" points="81.67 76.27 46.12 40.72 81.67 5.17 117.22 40.72 81.67 76.27"/><polygon class="cls-2" points="-5.46 -85.12 -5.46 -13.89 29.45 21.37 29.45 -50.55 -5.46 -85.12"/><polyline class="cls-2" points="39.52 -45.25 75.5 -9.27 39.52 26.71"/><polyline class="cls-2" points="91.29 81.56 126.68 46.17 162.45 81.94"/><polyline class="cls-2" points="66.24 79.63 -4.11 79.63 -4.11 9.28"/></pattern></defs><title>Artboard 1 copy 2hands</title><path class="cls-4" d="M1373.26,592.43v88a5,5,0,0,1-5,5h-88a5,5,0,0,1-3.55-8.58l88-88A5,5,0,0,1,1373.26,592.43Z"/><rect class="cls-4" x="1166.27" y="564.51" width="52.56" height="52.56" rx="5.03"/><path class="cls-4" d="M1236.51,192v87.65a5,5,0,0,1-5,5h-87.65a5,5,0,0,1-3.55-8.59l87.64-87.64A5,5,0,0,1,1236.51,192Z"/><polyline class="cls-5" points="1147.2 780.1 1184.82 742.48 1222.44 780.1"/><path class="cls-4" d="M1284.65,389.05l-25.17-25.17a5,5,0,0,0-7.11,0l-24.77,24.77a5,5,0,0,0,3.52,8.58l49.93.4A5,5,0,0,0,1284.65,389.05Z"/><path class="cls-4" d="M1364.27,223.26h-56.39a5,5,0,0,1-5-5V161.84a5,5,0,0,1,8.58-3.55l56.39,56.39A5,5,0,0,1,1364.27,223.26Z"/><path class="cls-4" d="M1300.18-10.29v88a5,5,0,0,1-5,5h-88a5,5,0,0,1-3.56-8.58l88-88A5,5,0,0,1,1300.18-10.29Z"/><path class="cls-4" d="M163.67,473.05H76.22A5.19,5.19,0,0,1,71,467.86V380.41a5.19,5.19,0,0,1,8.86-3.67l87.45,87.45A5.19,5.19,0,0,1,163.67,473.05Z"/><rect class="cls-4" x="171.18" y="289.48" width="52.56" height="52.56" rx="5.19" transform="translate(394.92 631.52) rotate(-180)"/><path class="cls-4" d="M93.21,242.76H6.13a5.19,5.19,0,0,1-5.19-5.2V150.48a5.19,5.19,0,0,1,8.86-3.67l87.08,87.08A5.2,5.2,0,0,1,93.21,242.76Z"/><path class="cls-4" d="M110.53,662.35l-33.95-34a5.2,5.2,0,0,0-7.35,0l-33.94,34"/><path class="cls-4" d="M236.85,150.62l-24.37-24.37a5.2,5.2,0,0,0-7.35,0L180.37,151a5.2,5.2,0,0,0,3.71,8.87l49.14-.4A5.19,5.19,0,0,0,236.85,150.62Z"/><path class="cls-4" d="M239.88,529.49v55.83a5.19,5.19,0,0,1-5.19,5.19H178.86a5.19,5.19,0,0,1-3.67-8.86L231,525.82A5.19,5.19,0,0,1,239.88,529.49Z"/><path class="cls-4" d="M159.19,73H71.75a5.19,5.19,0,0,1-5.2-5.19V-19.64a5.2,5.2,0,0,1,8.87-3.67l87.45,87.45A5.19,5.19,0,0,1,159.19,73Z"/><polyline class="cls-6" points="291.08 794.99 186.27 794.99 186.27 690.18"/><rect class="cls-7" x="-22.01" y="661.14" width="1420.01" height="127.86"/><rect class="cls-8" x="-43" y="661" width="1498" height="153"/><path class="cls-2" d="M734.55,724.42l10.86-10.86a.92.92,0,0,0,0-1.32l-10.86-10.87a.94.94,0,0,0-1.6.66v21.73A.94.94,0,0,0,734.55,724.42Z"/><text class="cls-9" transform="translate(614.32 718.11)">Continue</text><path class="cls-10" d="M600,116.65l15.19-15.18a1.19,1.19,0,0,0,.34-.8l.24-11.43a1.1,1.1,0,0,0-1.91-.77l-15.31,15.31a1.11,1.11,0,0,0-.34.81l-.12,11.3A1.1,1.1,0,0,0,600,116.65Z"/><path class="cls-11" d="M616.19,84V70.87a1.15,1.15,0,0,0-1.1-1.2H603a1.22,1.22,0,0,0-.78,2l12.1,13.14A1.1,1.1,0,0,0,616.19,84Z"/><path class="cls-12" d="M612.23,66.51H599.29a1.21,1.21,0,0,1-1.21-1.21V52.21a1.21,1.21,0,0,1,2.07-.85l12.94,13.09A1.21,1.21,0,0,1,612.23,66.51Z"/><path class="cls-13" d="M621.48,97.11l12.93-12.93a1.11,1.11,0,0,0,0-1.58L621.48,69.66a1.12,1.12,0,0,0-1.91.79V96.33A1.12,1.12,0,0,0,621.48,97.11Z"/><path class="cls-14" d="M604.2,93l6.21-6.21a.53.53,0,0,0,0-.75l-6.21-6.21a.53.53,0,0,0-.91.38V92.64A.53.53,0,0,0,604.2,93Z"/><text class="cls-15" transform="translate(659.79 94.17)">Level 1</text><path class="cls-2" d="M624.41,324.18c.51-3.74-7-18.75-12.16-24.86-2.08-2.46-3.34-6-4-9.6-1-5.36-.74-10.9,0-13.33,1.27-4.05,7.07-5,8.06-4.35.83.52,24.28,34.68,32.17,46.18a14.75,14.75,0,0,1,2.59,8.2c.07,6.79.31,19.7,1.07,27.18,1.08,10.49-2,21.89-2,21.89s-3.92,11.91-21.91,18.63-30.5-3.81-34.65-6.53-33.56-40.51-34.38-42.51-3.9-12.48-16.53-31.22c-4-5.93-11.64-22-11.83-24.75s-.77-9.24,2-10.39,9.74,4.38,14,18c0,0,18,25,17.82,26.24s1.07-4.17-.38-5.44-13.71-20.24-13.71-20.24-14.24-30.05-15.49-34.21-2.35-10.22,1.64-11.87,5.58.82,5.58.82"/><path class="cls-16" d="M603.66,395.09a50.18,50.18,0,0,1-9.59-5.5c-.47-.32-.88-.61-1.23-.83-4.63-3-34.11-41.23-34.9-43.14-.1-.24-.23-.6-.4-1.06-1.21-3.33-4.89-13.45-16-29.92-3.86-5.72-11.84-22.14-12.07-25.43l0-.36c-.24-3.47-.7-9.94,2.91-11.42a4.4,4.4,0,0,1,3.67.33c2.2,1,5,3.58,7.54,7.91-4.13-8.87-9.08-19.71-9.82-22.15-2.77-9.24-.2-12.48,2.45-13.57,4-1.65,6.51.16,7.28,1.35a1.4,1.4,0,1,1-2.35,1.52c-.09-.12-1.12-1.42-3.87-.29-3,1.24-1.81,6.91-.83,10.18s10.45,23.54,15.38,33.93c5.79,9,12.44,19,13.41,19.88,2.06,1.79.88,7,.64,7.37l-.58,1-1.09-.38a1.37,1.37,0,0,1-.93-1.37c-1-2.26-11.2-16.76-17.54-25.57l-.13-.18-.07-.22c-3-9.59-7.5-15.39-10.68-16.88a2,2,0,0,0-1.42-.28c-1.16.47-1.55,3.38-1.18,8.64l0,.36c.15,2.16,7.31,17.72,11.59,24.07,11.29,16.75,15.07,27.12,16.31,30.52.15.42.27.74.35.95,1.08,2.13,29.85,39.25,33.85,41.87.37.24.8.54,1.29.88,4.9,3.41,16.35,11.39,32.11,5.51,16.62-6.2,20.82-17.05,21.07-17.73s2.91-11.57,1.91-21.33c-.76-7.5-1-20.33-1.08-27.31a13.37,13.37,0,0,0-2.34-7.43c-18-26.2-30-43.49-31.79-45.75-1.18-.12-5.1.81-6,3.55-.61,2-1,7.17,0,12.65a19.52,19.52,0,0,0,3.71,9c4.82,5.71,13.12,21.27,12.47,25.95A1.4,1.4,0,1,1,623,324c.41-3-6.48-17.43-11.84-23.77A22.42,22.42,0,0,1,606.86,290c-1.06-5.61-.76-11.4.06-14a7.86,7.86,0,0,1,5.07-4.86c1.72-.63,4-1,5.07-.26.4.25,1.14.71,32.57,46.57a16.17,16.17,0,0,1,2.84,9c.07,6.93.31,19.67,1.06,27,1.09,10.62-1.88,21.92-2,22.39l0,.08c-.17.51-4.34,12.62-22.75,19.49A33.06,33.06,0,0,1,603.66,395.09ZM563.28,322.8Zm-15.16-26.68,1,1.44-1.94-4.11C547.52,294.3,547.83,295.19,548.12,296.12Zm67.59-22.83"/><path class="cls-2" d="M608.23,289.72c-3.72-.3-17.37-24.11-15-19.79,0,0-12.81-16.8-16.13-19.84s-13.91-16.64-17.66-14.65c-2.8,1.49-5.81,2.89-5.88,6a7.85,7.85,0,0,0,1,3.69,55.41,55.41,0,0,0,4.41,6.46c6.53,8.68,17.72,22.09,20.73,27.77,4,7.48,10.51,14.79,10.25,15.93a21.29,21.29,0,0,1-2.31,4.05s-17.31-29.51-18.33-30.56-9.43-15.39-9.43-15.39"/><path class="cls-16" d="M587.56,301.87l-1.1-1.87c-6.77-11.54-17.2-29.15-18.16-30.33s-7.61-12.22-9.6-15.62a1.45,1.45,0,0,1-.19-.83l-.63-.83a54.87,54.87,0,0,1-4.53-6.66,9.23,9.23,0,0,1-1.19-4.36c.08-3.72,3.31-5.42,6.16-6.92l.47-.25c3.53-1.87,9.06,3.76,15.92,11.31,1.39,1.54,2.59,2.86,3.34,3.55,3,2.73,12.94,15.65,15.63,19.16a7.29,7.29,0,0,1,1.26,1.73c10.11,16.4,12.86,18.23,13.46,18.39a1.37,1.37,0,0,1,1.25,1.5,1.4,1.4,0,0,1-1.53,1.27c-1.87-.15-5-2.64-15.55-19.7l-.41-.66,0,0c-.12-.17-12.76-16.74-16-19.67-.84-.77-2.08-2.13-3.52-3.72a102.71,102.71,0,0,0-7.65-7.84c-3.83-3.38-4.88-2.88-4.89-2.88l-.47.25c-2.88,1.51-4.63,2.57-4.67,4.51a6.54,6.54,0,0,0,.87,3,52.74,52.74,0,0,0,4.29,6.26c2,2.68,4.44,5.77,7,9,5.74,7.32,11.69,14.88,13.82,18.91a95.33,95.33,0,0,0,7,10.79c2.85,3.94,3.58,5,3.33,6.12a19.48,19.48,0,0,1-2.53,4.53ZM573,271.93c3.78,6.16,10.58,17.69,14.7,24.72a12.41,12.41,0,0,0,.8-1.47,48.11,48.11,0,0,0-2.78-4.09A97.66,97.66,0,0,1,578.5,280,73,73,0,0,0,573,271.93Z"/><path class="cls-2" d="M573.39,309.41c3.46-3.85-16.14-29.66-16.14-29.66s-9.14-18.6-14.94-27.69-2.39-13.29.63-14.53c0,0,7.75-.24,10.36,5.15"/><path class="cls-16" d="M572.85,310.7a1.41,1.41,0,0,1-.4-.25,1.39,1.39,0,0,1-.11-2c.08-.14,1-2.34-7.1-14.91-4.33-6.69-9.06-12.92-9.1-13l-.15-.23c-.09-.19-9.16-18.64-14.86-27.56-3-4.7-4-8.73-3-12a7.39,7.39,0,0,1,4.27-4.61l.23-.1h.26c.35,0,8.68-.2,11.66,5.94a1.4,1.4,0,0,1-2.51,1.22c-1.95-4-7.55-4.34-8.81-4.36a4.52,4.52,0,0,0-2.44,2.76c-.75,2.37.18,5.7,2.69,9.62,5.53,8.66,14.15,26.08,15,27.7.67.88,5.22,7,9.35,13.37,8.38,13,8.06,16.38,6.64,18A1.41,1.41,0,0,1,572.85,310.7Z"/><path class="cls-2" d="M610.05,308.3s-8.08,14.38-5.91,22.33,2.62,23.81,13,32.81"/><path class="cls-16" d="M616.57,364.73a1.38,1.38,0,0,1-.38-.23c-8.42-7.34-10.55-18.89-12.1-27.32-.45-2.4-.83-4.47-1.29-6.18-2.3-8.4,5.69-22.78,6-23.39a1.4,1.4,0,0,1,2.44,1.37c-.08.14-7.77,14-5.78,21.29.5,1.82.91,4,1.34,6.4,1.48,8,3.51,19,11.2,25.72a1.4,1.4,0,0,1-1.46,2.34Z"/><path class="cls-2" d="M615.74,317.19s3.43-2,5-1.31"/><path class="cls-16" d="M615.21,318.48a1.39,1.39,0,0,1-.16-2.5c.94-.54,4.18-2.24,6.22-1.39a1.39,1.39,0,0,1,.75,1.82,1.4,1.4,0,0,1-1.83.76c-.48-.19-2.3.41-3.75,1.24A1.41,1.41,0,0,1,615.21,318.48Z"/><path class="cls-2" d="M590.61,313s-7.34,31.4-13.88,32.07"/><path class="cls-16" d="M576.2,346.35a1.4,1.4,0,0,1,.39-2.68c3.43-.35,9.24-16.36,12.66-31a1.4,1.4,0,1,1,2.72.64c-1.77,7.59-8.1,32.43-15.1,33.14A1.25,1.25,0,0,1,576.2,346.35Z"/><path class="cls-2" d="M725.69,383.79a32.9,32.9,0,0,1-4-12.22c-.88-5.51-2-10.89-3.07-16.35-1.09-5.71-.48-12-.56-17.83-.07-5-1.44-12.61.69-17.39,1.68-3.77,26-52.43,29.83-53.27s8.44,5.17,7.9,10.8-3.87,15.08-4.84,18a103.26,103.26,0,0,1-7,15.29s5.1-3.22,13.16-18.78c1.31-2.53,23.9-32.44,25.51-33.79,2.86-2.38,5-6.23,7.22-9.16,3.45-4.51,7-8.46,11.77-11.62a14.64,14.64,0,0,1,4.85-2.27,6.5,6.5,0,0,1,5.15.9,4.21,4.21,0,0,1,1.54,4.76c2.82-2.34,7.71-6.87,12.37-1.77,2.65,2.88-4.26,13-4.26,13a6.43,6.43,0,0,1,4.29,0c2.41.81,1.87,6.44-.28,11s-7,19.85-7,19.85,2.41-3.75,5.1-4.29a8.3,8.3,0,0,1,5.09.81s-2.68,13.65-3,15c-.95,4.76-4.63,9.42-6.54,13.9a103.38,103.38,0,0,0-5.5,16.91c-1.16,5-1.85,10.59-4.46,15.11-2.85,4.91-6,9.91-9,14.77-2.18,3.51-4.38,7-6.72,10.4s-4.38,6.91-6.78,10.16c-2.84,3.83-6.93,6.55-11.19,8.69-13,6.51-35.51,15.07-47.84,2.48A17.27,17.27,0,0,1,725.69,383.79Z"/><path class="cls-11" d="M745.34,394.78c-8.9,0-14.6-3.21-18.22-6.9a19.41,19.41,0,0,1-2.62-3.35h0c-2-3.24-3.35-7.28-4.23-12.73-.62-3.88-1.38-7.77-2.12-11.52-.32-1.6-.63-3.19-.94-4.79a63.79,63.79,0,0,1-.63-13.05c0-1.75.06-3.4,0-5,0-1.24-.12-2.65-.22-4.15-.33-4.66-.7-9.94,1-13.83.93-2.08,7.58-15.43,14.17-27.82,13.6-25.57,15.57-26,16.63-26.24a6.21,6.21,0,0,1,5.42,1.78,13.06,13.06,0,0,1,4.18,10.52c-.51,5.29-3.37,13.74-4.59,17.35l-.32.93c-.56,1.67-1.22,3.38-1.92,5a110.29,110.29,0,0,0,5.53-9.59c1.41-2.71,24.12-32.77,25.86-34.22a30.62,30.62,0,0,0,5-6.07c.66-1,1.35-2,2-2.87a49.67,49.67,0,0,1,12.11-11.94,15.7,15.7,0,0,1,5.33-2.46A7.79,7.79,0,0,1,813.1,235a5.8,5.8,0,0,1,2.09,3c3.08-2.27,7.69-4.54,12,.19,2.45,2.67-.34,8.54-2.54,12.24a8.23,8.23,0,0,1,2,.41,3.38,3.38,0,0,1,2,2c1.2,2.79.06,7.62-1.49,10.93-1.28,2.71-3.57,9.43-5.17,14.26a6,6,0,0,1,1.74-.67,9.65,9.65,0,0,1,6.05,1l.89.49-.2,1s-2.68,13.66-3,15c-.64,3.19-2.36,6.24-4,9.18a53.32,53.32,0,0,0-2.59,5,101.33,101.33,0,0,0-5.43,16.69c-.25,1.07-.48,2.17-.71,3.28-.86,4.17-1.74,8.47-3.91,12.21-2.49,4.3-5.22,8.69-7.87,12.93l-1.17,1.88c-2.33,3.74-4.44,7.1-6.76,10.46-.94,1.35-1.86,2.79-2.76,4.18-1.28,2-2.62,4.07-4.05,6-2.58,3.48-6.4,6.46-11.68,9.11C763.26,392.34,753.09,394.78,745.34,394.78Zm3.6-126.71c-3.9,2.58-26.59,47.18-29,52.5-1.45,3.25-1.11,8.16-.8,12.5.1,1.54.2,3,.22,4.3,0,1.68,0,3.43,0,5.12A61.86,61.86,0,0,0,720,355q.45,2.4.93,4.77c.74,3.79,1.51,7.7,2.14,11.62.81,5.07,2,8.79,3.85,11.7h0a16.51,16.51,0,0,0,2.23,2.87c6.12,6.24,19.11,10.83,46.23-2.75,4.88-2.45,8.38-5.15,10.69-8.27C787.4,373,788.71,371,790,369c.91-1.41,1.85-2.86,2.81-4.26,2.28-3.31,4.38-6.64,6.69-10.35l1.17-1.88c2.63-4.22,5.36-8.59,7.83-12.85,1.93-3.34,2.77-7.43,3.59-11.37.23-1.14.46-2.26.72-3.36a104.27,104.27,0,0,1,5.58-17.14,56.18,56.18,0,0,1,2.73-5.27c1.56-2.76,3.17-5.61,3.72-8.36.23-1.12,2.1-10.61,2.74-13.9a6.44,6.44,0,0,0-3.23-.28c-1.71.34-3.65,2.83-4.2,3.68l-5.63,8.7,3.12-9.88c.2-.63,4.9-15.43,7.06-20,1.69-3.59,2.06-7.21,1.45-8.64-.1-.25-.22-.4-.35-.44a5.2,5.2,0,0,0-3.3,0l-4.4,1.88,2.69-3.95c3-4.36,5.51-10.07,4.39-11.29-3.28-3.58-6.49-1.41-10,1.57l-4.71,3.92,2.13-5.19a2.81,2.81,0,0,0-1.08-3.1,5.06,5.06,0,0,0-4-.66,13.45,13.45,0,0,0-4.37,2.06,47.09,47.09,0,0,0-11.43,11.31c-.64.85-1.28,1.77-2,2.75a32.26,32.26,0,0,1-5.49,6.64c-1.8,1.63-23.91,30.95-25.16,33.36-8.14,15.71-13.43,19.17-13.65,19.31l-4.71,3,2.75-4.83a102.62,102.62,0,0,0,6.87-15.05l.32-.94c1.19-3.52,4-11.75,4.46-16.72a10.28,10.28,0,0,0-3.25-8.16A3.75,3.75,0,0,0,748.94,268.07Zm.06,0"/><path class="cls-2" d="M738.44,317.5s5.1-4,6.17-6.7"/><path class="cls-11" d="M738.44,318.9a1.42,1.42,0,0,1-1.1-.54,1.4,1.4,0,0,1,.23-2c1.86-1.47,5.07-4.43,5.75-6.12a1.39,1.39,0,0,1,2.59,1c-1.18,2.95-6.06,6.85-6.61,7.29A1.39,1.39,0,0,1,738.44,318.9Z"/><path class="cls-2" d="M806.57,329.61s-1.87-7.24-.25-13.95S819,282.94,819,282.94"/><path class="cls-11" d="M806.57,331a1.41,1.41,0,0,1-1.35-1.05c-.08-.31-1.94-7.66-.26-14.62,1.62-6.74,12.25-31.88,12.7-32.95a1.4,1.4,0,1,1,2.57,1.09c-.11.26-11,26-12.56,32.51-1.51,6.27.24,13.21.26,13.28a1.41,1.41,0,0,1-1,1.7A1.34,1.34,0,0,1,806.57,331Z"/><path class="cls-2" d="M796.39,309s5.65-19.58,9.14-25.48,12.09-28.43,16.39-31.38"/><path class="cls-11" d="M796.39,310.35a1.26,1.26,0,0,1-.38-.06,1.4,1.4,0,0,1-1-1.73c.23-.8,5.74-19.82,9.28-25.8,1.17-2,3-6.1,5-10.46,5.08-11.25,8.9-19.37,11.8-21.36a1.4,1.4,0,1,1,1.59,2.3c-2.49,1.71-7.32,12.4-10.84,20.21-2.09,4.63-3.89,8.62-5.14,10.73-3.36,5.68-8.94,25-9,25.16A1.39,1.39,0,0,1,796.39,310.35Z"/><path class="cls-2" d="M779.23,297.13s20.41-35.93,34.64-56.31"/><path class="cls-11" d="M779.23,298.53a1.42,1.42,0,0,1-.69-.18,1.41,1.41,0,0,1-.53-1.91c.21-.36,20.61-36.22,34.72-56.42a1.4,1.4,0,1,1,2.29,1.6c-14,20.09-34.37,55.84-34.58,56.2A1.37,1.37,0,0,1,779.23,298.53Z"/><path class="cls-2" d="M742.22,278.87s4.83,1.34,7.51,0,4.3-5.09,4.3-5.09"/><path class="cls-11" d="M746.56,280.87a19,19,0,0,1-4.72-.66,1.4,1.4,0,0,1,.75-2.69c1.2.33,4.72,1,6.52.1s3.24-3.48,3.63-4.4a1.4,1.4,0,0,1,2.57,1.11c-.07.17-1.85,4.24-5,5.79A8.6,8.6,0,0,1,746.56,280.87Z"/><path class="cls-2" d="M804.22,238.93s-.81,1.61,1.6,3.22a5.57,5.57,0,0,0,4.3,1.08"/><path class="cls-11" d="M809.3,244.71a7.61,7.61,0,0,1-4.25-1.4c-2.72-1.81-2.55-4.07-2.08-5l2.5,1.25,0-.08c-.08.24.07.82,1.1,1.51a4.35,4.35,0,0,0,3.16.89,1.4,1.4,0,0,1,1.69,1,1.38,1.38,0,0,1-1,1.69A4.56,4.56,0,0,1,809.3,244.71Z"/><path class="cls-2" d="M819.45,239.54s-2.54,3-1.2,4.33a38.86,38.86,0,0,0,5.28,3.66"/><path class="cls-11" d="M823.53,248.93a1.41,1.41,0,0,1-.71-.2,38.07,38.07,0,0,1-5.56-3.87c-1.66-1.67-.43-4.39,1.13-6.22a1.4,1.4,0,1,1,2.13,1.81,4.8,4.8,0,0,0-1.26,2.47,35.72,35.72,0,0,0,5,3.4,1.41,1.41,0,0,1,.49,1.92A1.39,1.39,0,0,1,823.53,248.93Z"/><path class="cls-2" d="M820.84,256.65s-.27,3.75,2.41,5.1"/><path class="cls-11" d="M823.25,263.14a1.37,1.37,0,0,1-.62-.14c-3.48-1.74-3.2-6.26-3.18-6.45a1.39,1.39,0,1,1,2.78.19c0,.06-.15,2.86,1.65,3.76a1.38,1.38,0,0,1,.62,1.87A1.4,1.4,0,0,1,823.25,263.14Z"/><path class="cls-2" d="M823.51,281.06s-1.88,5.91,1.87,7"/><path class="cls-11" d="M825.38,289.44a1.26,1.26,0,0,1-.38-.06,4.31,4.31,0,0,1-2.68-2.14c-1.37-2.55-.27-6.19-.14-6.6a1.4,1.4,0,1,1,2.66.85h0c-.24.74-.75,3.15-.06,4.44a1.5,1.5,0,0,0,1,.77,1.4,1.4,0,0,1-.39,2.74Z"/><path class="cls-2" d="M739,325.19s1.82-8.75,2.42-9.65"/><path class="cls-11" d="M739,326.59a1.33,1.33,0,0,1-.28,0,1.41,1.41,0,0,1-1.09-1.65c.86-4.11,2-9.21,2.63-10.15a1.4,1.4,0,1,1,2.32,1.55c-.31.64-1.4,5.27-2.21,9.17A1.4,1.4,0,0,1,739,326.59Z"/><path class="cls-17" d="M739.35,241.36l13.39-6c-81.31-50.82-158,.92-158,.92"/><line class="cls-17" x1="747.66" y1="219.18" x2="753.21" y2="235.81"/><text class="cls-18" transform="translate(613.8 500.63)">Instructions</text><text class="cls-19" transform="translate(512.5 537.66)">Start with your hand out palm up, <tspan x="1.64" y="26.4">then </tspan><tspan class="cls-20" x="52.59" y="26.4">r</tspan><tspan x="60.34" y="26.4">otate your wrist to flip your </tspan><tspan x="-19.02" y="52.8">hand over and knock over the blocks.</tspan></text><path class="cls-4" d="M1334.43,459.15v56.39a5,5,0,0,1-5,5H1273a5,5,0,0,1-3.55-8.58l56.39-56.39A5,5,0,0,1,1334.43,459.15Z"/><line class="cls-7" x1="110.53" y1="662.35" x2="35.29" y2="662.35"/></svg>