<?xml version="1.0" encoding="utf-8"?>
<!-- Generator: Adobe Illustrator 24.0.3, SVG Export Plug-In . SVG Version: 6.00 Build 0)  -->
<svg version="1.1" xmlns="http://www.w3.org/2000/svg" xmlns:xlink="http://www.w3.org/1999/xlink" x="0px" y="0px"
	 viewBox="0 0 63 89.6" style="enable-background:new 0 0 63 89.6;" xml:space="preserve">
<style type="text/css">
	.st0{fill:#E22E26;}
	.st1{fill:#283271;}
	.st2{fill:#F8974A;}
	.st3{fill:#37C1CC;}
	.st4{fill:#3D5BA9;}
	.st5{fill:url(#);}
	.st6{opacity:8.000000e-02;fill:url(#);}
	.st7{fill:#FFFFFF;}
	.st8{fill:none;stroke:#37C1CC;stroke-width:4;stroke-linecap:round;stroke-miterlimit:10;}
	.st9{fill:none;stroke:#3D5BA9;stroke-width:4;stroke-linecap:round;stroke-miterlimit:10;}
	.st10{fill:url(#);stroke:#3D5BA9;stroke-width:4;stroke-linecap:round;stroke-linejoin:round;stroke-miterlimit:10;}
	.st11{fill:#FFFFFF;stroke:#37C1CC;stroke-width:4;stroke-linecap:round;stroke-miterlimit:10;}
</style>
<g id="Layer_1">
	<g>
		<g>
			<path class="st3" d="M17.2,81.1L34,64.3c0.2-0.2,0.4-0.6,0.4-0.9l0.3-12.7c0-1.1-1.3-1.7-2.1-0.9l-17,17
				c-0.2,0.2-0.4,0.6-0.4,0.9L15,80.3C15,81.4,16.4,81.9,17.2,81.1z"/>
			<path class="st4" d="M35.1,44.9V30.3c0-0.7-0.6-1.3-1.2-1.3H20.4c-1.1,0-1.6,1.4-0.9,2.3L33,45.8C33.8,46.6,35.1,46,35.1,44.9z"
				/>
			<path class="st2" d="M30.7,25.4H16.3c-0.7,0-1.3-0.6-1.3-1.3V9.6c0-1.2,1.5-1.8,2.3-0.9l14.4,14.5C32.5,24,31.9,25.4,30.7,25.4z"
				/>
			<path class="st0" d="M41,59.4l14.4-14.4c0.5-0.5,0.5-1.3,0-1.7L41,28.9c-0.8-0.8-2.1-0.2-2.1,0.9v28.7
				C38.8,59.6,40.2,60.2,41,59.4z"/>
		</g>
		<path class="st1" d="M21.8,54.9l6.9-6.9c0.2-0.2,0.2-0.6,0-0.8l-6.9-6.9c-0.4-0.4-1-0.1-1,0.4v13.8C20.8,55,21.4,55.2,21.8,54.9z"
			/>
	</g>
</g>
<g id="Layer_2">
</g>
</svg>
