<svg id="Layer_1" data-name="Layer 1" xmlns="http://www.w3.org/2000/svg" viewBox="0 0 215.52 123.48"><defs><style>.cls-1{fill:#283271;}.cls-2{font-size:21.43px;fill:#6d6e71;font-family:AvenirNextCondensed-Regular, Avenir Next Condensed;}.cls-3{letter-spacing:-0.01em;}.cls-4{letter-spacing:-0.01em;}.cls-5{fill:#37c1cc;}.cls-6{fill:#3d5ba9;}.cls-7{fill:#f8974a;}.cls-8{fill:#e22e26;}</style></defs><title>logowithtagline</title><path class="cls-1" d="M108.88,75.37h0a3.48,3.48,0,0,1-3.47-3.47V70.12h-.15a13.21,13.21,0,0,1-5.52,4.55,17,17,0,0,1-7.21,1.62,19.42,19.42,0,0,1-7.67-1.46A16.87,16.87,0,0,1,79,70.74a18.63,18.63,0,0,1-3.75-6.09,21.36,21.36,0,0,1-1.31-7.56,21.63,21.63,0,0,1,1.31-7.6A18,18,0,0,1,79,43.4a17.18,17.18,0,0,1,5.86-4,19.25,19.25,0,0,1,7.67-1.47,17.09,17.09,0,0,1,7.41,1.66,12.75,12.75,0,0,1,5.32,4.51h.15V20.53a3.47,3.47,0,0,1,3.47-3.47h0a3.47,3.47,0,0,1,3.47,3.47V71.9A3.47,3.47,0,0,1,108.88,75.37Zm-15.5-5.56a12.57,12.57,0,0,0,5-1,11.13,11.13,0,0,0,3.78-2.62,11.48,11.48,0,0,0,2.39-4,15.91,15.91,0,0,0,0-10.26,11.39,11.39,0,0,0-2.39-4,11,11,0,0,0-3.78-2.62,13.42,13.42,0,0,0-10,0A10.9,10.9,0,0,0,84.59,48a11.39,11.39,0,0,0-2.39,4,15.91,15.91,0,0,0,0,10.26,11.48,11.48,0,0,0,2.39,4,11,11,0,0,0,3.78,2.62A12.57,12.57,0,0,0,93.38,69.81Z"/><path class="cls-1" d="M130.68,59.63a1.42,1.42,0,0,0-1.38,1.68c.74,4.43,5,7.9,9.25,8.75a12.21,12.21,0,0,0,8-1.18c1.65-.88,3.45-2.89,5.38-2.95,3-.1,4.18,3.95,2.06,5.78q-5.32,4.59-13.47,4.58a20.18,20.18,0,0,1-7.82-1.46,17,17,0,0,1-5.94-4,17.85,17.85,0,0,1-3.74-6.09,21.45,21.45,0,0,1-1.32-7.6,20,20,0,0,1,1.43-7.6,18.78,18.78,0,0,1,3.93-6.09,18.18,18.18,0,0,1,6-4,19.23,19.23,0,0,1,7.56-1.47c5.17,0,10.51,1.72,13.5,6.19a18.68,18.68,0,0,1,2.56,6.25c.85,3.72,1.24,9.3-3.92,9.31Zm18.86-5.55c2.48,0,1-3.86.46-5a10.17,10.17,0,0,0-4.66-4.64,11.21,11.21,0,0,0-9.6.07,11.75,11.75,0,0,0-6.41,7.89,1.41,1.41,0,0,0,1.38,1.7Z"/><path class="cls-1" d="M196.14,76a3.35,3.35,0,0,1-2.55-1.17L166.7,43.71a3.37,3.37,0,1,1,5.11-4.41l26.88,31.08A3.38,3.38,0,0,1,196.14,76Z"/><path class="cls-1" d="M169.25,76a3.3,3.3,0,0,1-2.2-.83,3.37,3.37,0,0,1-.35-4.76L193.59,39.3a3.37,3.37,0,1,1,5.1,4.41L171.81,74.8A3.39,3.39,0,0,1,169.25,76Z"/><text class="cls-2" transform="translate(73.62 105.24)">d<tspan class="cls-3" x="9.98" y="0">e</tspan><tspan x="18.92" y="0">xterity the</tspan><tspan class="cls-4" x="93.8" y="0">r</tspan><tspan x="99.54" y="0">apy</tspan></text><path class="cls-5" d="M15,89.41,31.82,72.55a1.3,1.3,0,0,0,.39-.89L32.48,59a1.23,1.23,0,0,0-2.13-.86l-17,17A1.27,1.27,0,0,0,13,76l-.13,12.55A1.23,1.23,0,0,0,15,89.41Z"/><path class="cls-6" d="M32.91,53.16V38.58a1.29,1.29,0,0,0-1.23-1.34H18.24a1.36,1.36,0,0,0-.87,2.28L30.81,54.1A1.22,1.22,0,0,0,32.91,53.16Z"/><path class="cls-7" d="M28.51,33.73H14.14a1.34,1.34,0,0,1-1.34-1.34V17.86a1.34,1.34,0,0,1,2.29-.95L29.47,31.45A1.34,1.34,0,0,1,28.51,33.73Z"/><path class="cls-8" d="M38.77,67.71,53.14,53.35a1.24,1.24,0,0,0,0-1.75L38.77,37.24a1.23,1.23,0,0,0-2.11.87V66.84A1.23,1.23,0,0,0,38.77,67.71Z"/><path class="cls-1" d="M19.59,63.17l6.9-6.89a.6.6,0,0,0,0-.84l-6.9-6.9a.59.59,0,0,0-1,.42V62.75A.59.59,0,0,0,19.59,63.17Z"/></svg>