<svg id="Layer_1" data-name="Layer 1" xmlns="http://www.w3.org/2000/svg" viewBox="0 0 208.74 90.61"><defs><style>.cls-1{fill:#283271;}.cls-2{fill:#37c1cc;}.cls-3{fill:#3d5ba9;}.cls-4{fill:#f8974a;}.cls-5{fill:#e22e26;}</style></defs><title>logowordmark</title><path class="cls-1" d="M105.51,67.49h0A3.47,3.47,0,0,1,102,64V62.25h-.16a13.19,13.19,0,0,1-5.51,4.55,17,17,0,0,1-7.21,1.62A19.33,19.33,0,0,1,81.48,67a17,17,0,0,1-5.86-4.08,18.38,18.38,0,0,1-3.74-6.1,21.28,21.28,0,0,1-1.31-7.56,21.61,21.61,0,0,1,1.31-7.59,18,18,0,0,1,3.74-6.1,17.37,17.37,0,0,1,5.86-4.05A19.51,19.51,0,0,1,89.16,30a16.87,16.87,0,0,1,7.4,1.66,12.56,12.56,0,0,1,5.32,4.51H102V12.65a3.47,3.47,0,0,1,3.47-3.47h0A3.47,3.47,0,0,1,109,12.65V64A3.47,3.47,0,0,1,105.51,67.49ZM90,61.94a12.57,12.57,0,0,0,5-1,11.16,11.16,0,0,0,3.78-2.63,11.54,11.54,0,0,0,2.39-4,15.91,15.91,0,0,0,0-10.26,11.72,11.72,0,0,0-2.39-4A11.13,11.13,0,0,0,95,37.45a13.58,13.58,0,0,0-10,0,11.13,11.13,0,0,0-3.78,2.62,11.72,11.72,0,0,0-2.39,4,15.91,15.91,0,0,0,0,10.26,11.54,11.54,0,0,0,2.39,4A11.16,11.16,0,0,0,85,61,12.62,12.62,0,0,0,90,61.94Z"/><path class="cls-1" d="M127.31,51.76a1.42,1.42,0,0,0-1.39,1.68c.75,4.43,5,7.9,9.26,8.75a12.19,12.19,0,0,0,8-1.19c1.66-.88,3.45-2.88,5.39-3,3-.09,4.18,4,2,5.79q-5.31,4.57-13.46,4.58A20.08,20.08,0,0,1,129.37,67a16.86,16.86,0,0,1-5.94-4.05,18,18,0,0,1-3.74-6.09,21.63,21.63,0,0,1-1.31-7.6,20,20,0,0,1,1.43-7.59,18.93,18.93,0,0,1,3.93-6.1,18,18,0,0,1,6-4.05A19.33,19.33,0,0,1,137.28,30c5.17,0,10.51,1.71,13.5,6.19a18.72,18.72,0,0,1,2.56,6.25c.85,3.71,1.24,9.3-3.93,9.31Zm18.85-5.55c2.49,0,1-3.87.46-5A10.17,10.17,0,0,0,142,36.54a11.21,11.21,0,0,0-9.6.08A11.73,11.73,0,0,0,126,44.5a1.42,1.42,0,0,0,1.38,1.71Z"/><path class="cls-1" d="M192.77,68.09a3.35,3.35,0,0,1-2.56-1.17L163.33,35.84a3.37,3.37,0,1,1,5.1-4.42l26.89,31.09a3.38,3.38,0,0,1-2.55,5.58Z"/><path class="cls-1" d="M165.88,68.09a3.37,3.37,0,0,1-2.55-5.58l26.88-31.09a3.38,3.38,0,0,1,5.11,4.42L168.43,66.92A3.35,3.35,0,0,1,165.88,68.09Z"/><path class="cls-2" d="M11.59,81.53,28.45,64.68a1.27,1.27,0,0,0,.38-.89L29.1,51.1A1.22,1.22,0,0,0,27,50.24l-17,17a1.31,1.31,0,0,0-.38.9L9.47,80.69A1.22,1.22,0,0,0,11.59,81.53Z"/><path class="cls-3" d="M29.53,45.28V30.7a1.28,1.28,0,0,0-1.22-1.33H14.87A1.35,1.35,0,0,0,14,31.65L27.44,46.23A1.22,1.22,0,0,0,29.53,45.28Z"/><path class="cls-4" d="M25.14,25.86H10.77a1.34,1.34,0,0,1-1.35-1.34V10A1.34,1.34,0,0,1,11.72,9L26.09,23.57A1.34,1.34,0,0,1,25.14,25.86Z"/><path class="cls-5" d="M35.4,59.84,49.76,45.47a1.23,1.23,0,0,0,0-1.74L35.4,29.36a1.24,1.24,0,0,0-2.11.88V59A1.24,1.24,0,0,0,35.4,59.84Z"/><path class="cls-1" d="M16.22,55.29l6.89-6.89a.58.58,0,0,0,0-.84l-6.89-6.89a.59.59,0,0,0-1,.42V54.87A.59.59,0,0,0,16.22,55.29Z"/></svg>