<svg id="Layer_1" data-name="Layer 1" xmlns="http://www.w3.org/2000/svg" viewBox="0 0 1360 632"><defs><style>.cls-1{fill:#f8974a;}.cls-1,.cls-2,.cls-3,.cls-4,.cls-5{opacity:0.3;}.cls-2{fill:#e22e26;}.cls-3{fill:#37c0cc;}.cls-4{fill:#283271;}.cls-5{fill:#3d5ba9;}</style></defs><title>NEW Pattern left</title><path class="cls-1" d="M64.43,230.14l-17.5-17.5a3.28,3.28,0,0,0-4.62,0L24.53,230.42A3.27,3.27,0,0,0,26.86,236l35.28-.29A3.26,3.26,0,0,0,64.43,230.14Z"/><path class="cls-2" d="M90.24,176.75H29a3.27,3.27,0,0,1-3.27-3.27V112.27A3.27,3.27,0,0,1,31.35,110l61.2,61.21A3.27,3.27,0,0,1,90.24,176.75Z"/><path class="cls-3" d="M96.09,607H35.14a3.26,3.26,0,0,1-3.26-3.27v-61a3.26,3.26,0,0,1,5.57-2.31l61,60.95A3.27,3.27,0,0,1,96.09,607Z"/><path class="cls-1" d="M68.7,513.14l-17.5-17.5a3.28,3.28,0,0,0-4.62,0L28.8,513.42A3.27,3.27,0,0,0,31.13,519l35.28-.29A3.27,3.27,0,0,0,68.7,513.14Z"/><rect class="cls-4" x="38.58" y="422.05" width="36.16" height="36.16" rx="4.75" transform="translate(113.33 880.26) rotate(-180)"/><rect class="cls-4" x="39.61" y="266.36" width="36.16" height="36.16" rx="4.75" transform="translate(115.38 568.88) rotate(-180)"/><path class="cls-5" d="M66.74,377H28a3.46,3.46,0,0,1-3.46-3.46V334.76a3.46,3.46,0,0,1,5.91-2.45l38.78,38.78A3.46,3.46,0,0,1,66.74,377Z"/></svg>