<svg id="Layer_1" data-name="Layer 1" xmlns="http://www.w3.org/2000/svg" xmlns:xlink="http://www.w3.org/1999/xlink" viewBox="0 0 172.47 180.26"><defs><style>.cls-1{fill:none;}.cls-2,.cls-3{fill:#fff;}.cls-3{stroke:#fff;stroke-miterlimit:10;}.cls-4{opacity:0.08;fill:url(#Dex_Square_pattern);}</style><pattern id="Dex_Square_pattern" data-name="Dex Square pattern" width="348.64" height="358.04" patternTransform="translate(514.79 139.06)" patternUnits="userSpaceOnUse" viewBox="0 0 348.64 358.04"><rect class="cls-1" width="348.64" height="358.04"/><path class="cls-2" d="M343.18,279.2v63.87a2.6,2.6,0,0,0,.76,1.84l29.68,30A2.62,2.62,0,0,0,378.1,373V308.58a2.6,2.6,0,0,0-.78-1.86l-29.68-29.38A2.62,2.62,0,0,0,343.18,279.2Z"/><path class="cls-3" d="M328.41,417,263.6,352.19a2.62,2.62,0,0,1,0-3.7l64.81-64.81a2.62,2.62,0,0,1,4.47,1.85V415.15A2.62,2.62,0,0,1,328.41,417Z"/><path class="cls-2" d="M168.86,279.2v63.87a2.6,2.6,0,0,0,.76,1.84l29.67,30a2.63,2.63,0,0,0,4.49-1.85V308.58a2.6,2.6,0,0,0-.78-1.86l-29.68-29.38A2.62,2.62,0,0,0,168.86,279.2Z"/><path class="cls-2" d="M325,271.76l-64.56,64.56a2.62,2.62,0,0,1-3.7,0l-64.56-64.56a2.62,2.62,0,0,1,1.85-4.47H323.19A2.62,2.62,0,0,1,325,271.76Z"/><path class="cls-2" d="M218.31,317.26,248,346.92a2.62,2.62,0,0,1,0,3.7l-29.66,29.66a2.62,2.62,0,0,1-4.47-1.85V319.12A2.62,2.62,0,0,1,218.31,317.26Z"/><path class="cls-3" d="M154.09,417,89.28,352.19a2.62,2.62,0,0,1,0-3.7l64.81-64.81a2.62,2.62,0,0,1,4.47,1.85V415.15A2.62,2.62,0,0,1,154.09,417Z"/><path class="cls-2" d="M-5.46,279.2v63.87a2.6,2.6,0,0,0,.76,1.84l29.67,30A2.62,2.62,0,0,0,29.45,373V308.58a2.63,2.63,0,0,0-.77-1.86L-1,277.34A2.62,2.62,0,0,0-5.46,279.2Z"/><path class="cls-2" d="M150.72,271.76,86.16,336.32a2.62,2.62,0,0,1-3.7,0L17.9,271.76a2.62,2.62,0,0,1,1.85-4.47H148.87A2.62,2.62,0,0,1,150.72,271.76Z"/><path class="cls-2" d="M44,317.26l29.66,29.66a2.62,2.62,0,0,1,0,3.7L44,380.28a2.62,2.62,0,0,1-4.47-1.85V319.12A2.62,2.62,0,0,1,44,317.26Z"/><path class="cls-2" d="M341.3,253.44l-31.85-31.85a2.62,2.62,0,0,1,0-3.7L341.3,186a2.62,2.62,0,0,1,3.7,0l31.85,31.85a2.62,2.62,0,0,1,0,3.7L345,253.44A2.62,2.62,0,0,1,341.3,253.44Z"/><path class="cls-2" d="M256,100.18v63.87a2.6,2.6,0,0,0,.76,1.84l29.68,30a2.62,2.62,0,0,0,4.48-1.85V129.56a2.6,2.6,0,0,0-.78-1.86L260.48,98.32A2.62,2.62,0,0,0,256,100.18Z"/><path class="cls-2" d="M412.2,92.74,347.64,157.3a2.62,2.62,0,0,1-3.7,0L279.38,92.74a2.62,2.62,0,0,1,1.85-4.47H410.35A2.62,2.62,0,0,1,412.2,92.74Z"/><path class="cls-2" d="M305.47,138.24l29.66,29.66a2.62,2.62,0,0,1,0,3.7l-29.66,29.66a2.62,2.62,0,0,1-4.47-1.85V140.1A2.62,2.62,0,0,1,305.47,138.24Z"/><path class="cls-2" d="M321.4,258.65H260a2.62,2.62,0,0,1-2.62-2.62V194.62a2.62,2.62,0,0,1,4.47-1.85l61.41,61.41A2.61,2.61,0,0,1,321.4,258.65Z"/><path class="cls-3" d="M241.25,238l-64.81-64.81a2.62,2.62,0,0,1,0-3.7l64.81-64.81a2.62,2.62,0,0,1,4.47,1.85V236.13A2.62,2.62,0,0,1,241.25,238Z"/><path class="cls-2" d="M167,253.44l-31.85-31.85a2.62,2.62,0,0,1,0-3.7L167,186a2.62,2.62,0,0,1,3.7,0l31.85,31.85a2.62,2.62,0,0,1,0,3.7l-31.85,31.85A2.62,2.62,0,0,1,167,253.44Z"/><path class="cls-2" d="M81.7,100.18v63.87a2.6,2.6,0,0,0,.76,1.84l29.67,30a2.62,2.62,0,0,0,4.48-1.85V129.56a2.59,2.59,0,0,0-.77-1.86L86.16,98.32A2.62,2.62,0,0,0,81.7,100.18Z"/><path class="cls-2" d="M237.88,92.74,173.32,157.3a2.62,2.62,0,0,1-3.7,0L105.06,92.74a2.62,2.62,0,0,1,1.85-4.47H236A2.62,2.62,0,0,1,237.88,92.74Z"/><path class="cls-2" d="M131.15,138.24l29.66,29.66a2.62,2.62,0,0,1,0,3.7l-29.66,29.66a2.62,2.62,0,0,1-4.47-1.85V140.1A2.62,2.62,0,0,1,131.15,138.24Z"/><path class="cls-2" d="M245.11,256.46,215.69,227a2.62,2.62,0,0,0-3.7,0l-29.1,29.1a2.62,2.62,0,0,0,1.84,4.47l58.51.32A2.62,2.62,0,0,0,245.11,256.46Z"/><path class="cls-2" d="M147.08,258.65H85.67A2.62,2.62,0,0,1,83.05,256V194.62a2.62,2.62,0,0,1,4.47-1.85l61.41,61.41A2.62,2.62,0,0,1,147.08,258.65Z"/><path class="cls-3" d="M66.93,238,2.12,173.17a2.6,2.6,0,0,1,0-3.7l64.81-64.81a2.62,2.62,0,0,1,4.47,1.85V236.13A2.62,2.62,0,0,1,66.93,238Z"/><path class="cls-2" d="M-7.35,253.44l-31.84-31.85a2.62,2.62,0,0,1,0-3.7L-7.35,186a2.63,2.63,0,0,1,3.71,0L28.2,217.89a2.6,2.6,0,0,1,0,3.7L-3.64,253.44A2.63,2.63,0,0,1-7.35,253.44Z"/><path class="cls-2" d="M63.56,92.74-1,157.3a2.62,2.62,0,0,1-3.7,0L-69.27,92.74a2.62,2.62,0,0,1,1.86-4.47H61.71A2.62,2.62,0,0,1,63.56,92.74Z"/><path class="cls-2" d="M70.79,256.46,41.37,227a2.63,2.63,0,0,0-3.71,0L8.57,256.14a2.62,2.62,0,0,0,1.83,4.47l58.52.32A2.62,2.62,0,0,0,70.79,256.46Z"/><path class="cls-2" d="M343.18-78.84V-15a2.6,2.6,0,0,0,.76,1.84l29.68,30A2.62,2.62,0,0,0,378.1,15V-49.46a2.6,2.6,0,0,0-.78-1.86L347.64-80.7A2.62,2.62,0,0,0,343.18-78.84Z"/><path class="cls-2" d="M408.56,79.63H347.15A2.62,2.62,0,0,1,344.53,77V15.6A2.62,2.62,0,0,1,349,13.75l61.42,61.41A2.62,2.62,0,0,1,408.56,79.63Z"/><path class="cls-3" d="M328.41,59,263.6-5.85a2.62,2.62,0,0,1,0-3.7l64.81-64.81a2.62,2.62,0,0,1,4.47,1.85V57.11A2.62,2.62,0,0,1,328.41,59Z"/><path class="cls-2" d="M254.14,74.42,222.29,42.57a2.62,2.62,0,0,1,0-3.7L254.14,7a2.62,2.62,0,0,1,3.7,0l31.85,31.85a2.62,2.62,0,0,1,0,3.7L257.84,74.42A2.62,2.62,0,0,1,254.14,74.42Z"/><path class="cls-2" d="M168.86-78.84V-15a2.6,2.6,0,0,0,.76,1.84l29.67,30A2.63,2.63,0,0,0,203.78,15V-49.46a2.6,2.6,0,0,0-.78-1.86L173.32-80.7A2.62,2.62,0,0,0,168.86-78.84Z"/><path class="cls-2" d="M218.31-40.78,248-11.12a2.62,2.62,0,0,1,0,3.7L218.31,22.24a2.62,2.62,0,0,1-4.47-1.85V-38.92A2.62,2.62,0,0,1,218.31-40.78Z"/><path class="cls-2" d="M332.27,77.44,302.85,48a2.62,2.62,0,0,0-3.7,0l-29.1,29.1a2.62,2.62,0,0,0,1.84,4.47l58.51.32A2.62,2.62,0,0,0,332.27,77.44Z"/><path class="cls-2" d="M234.24,79.63H172.83A2.62,2.62,0,0,1,170.21,77V15.6a2.62,2.62,0,0,1,4.47-1.85l61.41,61.41A2.62,2.62,0,0,1,234.24,79.63Z"/><path class="cls-3" d="M154.09,59,89.28-5.85a2.62,2.62,0,0,1,0-3.7l64.81-64.81a2.62,2.62,0,0,1,4.47,1.85V57.11A2.62,2.62,0,0,1,154.09,59Z"/><path class="cls-2" d="M79.82,74.42,48,42.57a2.62,2.62,0,0,1,0-3.7L79.82,7a2.62,2.62,0,0,1,3.7,0l31.84,31.85a2.6,2.6,0,0,1,0,3.7L83.52,74.42A2.62,2.62,0,0,1,79.82,74.42Z"/><path class="cls-2" d="M-5.46-78.84V-15a2.6,2.6,0,0,0,.76,1.84L25,16.85A2.62,2.62,0,0,0,29.45,15V-49.46a2.63,2.63,0,0,0-.77-1.86L-1-80.7A2.62,2.62,0,0,0-5.46-78.84Z"/><path class="cls-2" d="M44-40.78,73.65-11.12a2.62,2.62,0,0,1,0,3.7L44,22.24a2.62,2.62,0,0,1-4.47-1.85V-38.92A2.62,2.62,0,0,1,44-40.78Z"/><path class="cls-2" d="M158,77.44,128.53,48a2.62,2.62,0,0,0-3.7,0l-29.1,29.1a2.62,2.62,0,0,0,1.83,4.47l58.52.32A2.62,2.62,0,0,0,158,77.44Z"/><path class="cls-2" d="M59.92,79.63H-1.49A2.62,2.62,0,0,1-4.11,77V15.6A2.62,2.62,0,0,1,.36,13.75L61.77,75.16A2.62,2.62,0,0,1,59.92,79.63Z"/></pattern></defs><title>NEW PATTERN</title><rect class="cls-4" x="-311.06" y="-25.88" width="785.82" height="364.84"/></svg>