<svg id="Layer_1" data-name="Layer 1" xmlns="http://www.w3.org/2000/svg" viewBox="0 0 1360 632"><defs><style>.cls-1{fill:#e22e26;}.cls-1,.cls-2,.cls-3,.cls-4,.cls-5{opacity:0.54;}.cls-2{fill:#283271;}.cls-3{fill:#37c0cc;}.cls-4{fill:#f8974a;}.cls-5{fill:#3d5ba9;}</style></defs><title>Pattern left</title><path class="cls-1" d="M109.64,383.1H48.43a3.26,3.26,0,0,1-3.26-3.26V318.63a3.26,3.26,0,0,1,5.57-2.31L112,377.53A3.26,3.26,0,0,1,109.64,383.1Z"/><rect class="cls-2" x="102.28" y="283.78" width="36.16" height="36.16" rx="4.75" transform="translate(240.72 603.72) rotate(-180)"/><path class="cls-3" d="M87.72,191.33H26.77a3.26,3.26,0,0,1-3.27-3.27V127.11a3.27,3.27,0,0,1,5.58-2.31l61,61A3.27,3.27,0,0,1,87.72,191.33Z"/><path class="cls-4" d="M131.43,237.58l-17.5-17.49a3.26,3.26,0,0,0-4.62,0L91.53,237.87a3.27,3.27,0,0,0,2.33,5.58l35.28-.29A3.27,3.27,0,0,0,131.43,237.58Z"/><path class="cls-5" d="M143.22,416.06v39.45a3.26,3.26,0,0,1-3.27,3.27H100.5a3.27,3.27,0,0,1-2.31-5.58l39.45-39.45A3.27,3.27,0,0,1,143.22,416.06Z"/><path class="cls-1" d="M118.24,98.75H57a3.27,3.27,0,0,1-3.27-3.27V34.27A3.27,3.27,0,0,1,59.35,32l61.2,61.21A3.27,3.27,0,0,1,118.24,98.75Z"/><path class="cls-3" d="M116.09,595H55.14a3.26,3.26,0,0,1-3.26-3.27v-61a3.26,3.26,0,0,1,5.57-2.31l61,60.95A3.27,3.27,0,0,1,116.09,595Z"/><path class="cls-4" d="M152.7,525.84l-17.5-17.49a3.26,3.26,0,0,0-4.62,0L112.8,526.13a3.27,3.27,0,0,0,2.33,5.58l35.28-.29A3.27,3.27,0,0,0,152.7,525.84Z"/><path class="cls-5" d="M143.82,119.55V159a3.27,3.27,0,0,1-3.26,3.27H101.11a3.27,3.27,0,0,1-2.32-5.58l39.46-39.45A3.26,3.26,0,0,1,143.82,119.55Z"/><rect class="cls-2" x="29.58" y="455.05" width="36.16" height="36.16" rx="4.75" transform="translate(95.33 946.26) rotate(-180)"/></svg>