<svg id="Layer_1" data-name="Layer 1" xmlns="http://www.w3.org/2000/svg" viewBox="0 0 1360 632"><defs><style>.cls-1{fill:#e22e26;}.cls-1,.cls-2,.cls-3,.cls-4,.cls-5{opacity:0.54;}.cls-2{fill:#283271;}.cls-3{fill:#37c0cc;}.cls-4{fill:#f8974a;}.cls-5{fill:#3d5ba9;}</style></defs><title>Pattern right</title><path class="cls-1" d="M1326.61,521.54v60.53a3.46,3.46,0,0,1-3.46,3.47h-60.54a3.46,3.46,0,0,1-2.45-5.91l60.54-60.54A3.46,3.46,0,0,1,1326.61,521.54Z"/><rect class="cls-2" x="1272.98" y="417.88" width="36.16" height="36.16" rx="5.03"/><path class="cls-3" d="M1320.5,205.15v60.28a3.46,3.46,0,0,1-3.46,3.47h-60.28a3.47,3.47,0,0,1-2.45-5.92l60.28-60.28A3.46,3.46,0,0,1,1320.5,205.15Z"/><path class="cls-4" d="M1300.43,379.53l-17.3-17.3a3.45,3.45,0,0,0-4.9,0l-17,17a3.46,3.46,0,0,0,2.42,5.91l34.33.28A3.46,3.46,0,0,0,1300.43,379.53Z"/><path class="cls-1" d="M1281.59,130.19v60.53a3.46,3.46,0,0,1-3.47,3.46h-60.53a3.46,3.46,0,0,1-2.45-5.91l60.54-60.53A3.46,3.46,0,0,1,1281.59,130.19Z"/><path class="cls-4" d="M1306.23,99l-17.3-17.31a3.47,3.47,0,0,0-4.9,0l-17,17a3.46,3.46,0,0,0,2.42,5.91l34.33.28A3.46,3.46,0,0,0,1306.23,99Z"/><path class="cls-3" d="M1288,513.08h-61a3.26,3.26,0,0,1-3.27-3.27V448.86a3.27,3.27,0,0,1,5.58-2.31l60.95,60.95A3.27,3.27,0,0,1,1288,513.08Z"/><path class="cls-5" d="M1255.5,67h-38.78a3.47,3.47,0,0,1-3.47-3.47V24.79a3.46,3.46,0,0,1,5.91-2.45L1258,61.13A3.46,3.46,0,0,1,1255.5,67Z"/><path class="cls-5" d="M1275.75,328.75H1237a3.46,3.46,0,0,1-3.47-3.46V286.51a3.46,3.46,0,0,1,5.91-2.45l38.78,38.78A3.46,3.46,0,0,1,1275.75,328.75Z"/></svg>